<?xml version="1.0" encoding="UTF-8"?>
<svg height="16px" viewBox="0 0 16 16" width="16px" xmlns="http://www.w3.org/2000/svg">
    <path d="m 4.011719 1 c -1.667969 0 -3.011719 1.34375 -3.011719 3.011719 v 7.976562 c 0 1.667969 1.34375 3.011719 3.011719 3.011719 h 7.976562 c 1.667969 0 3.011719 -1.34375 3.011719 -3.011719 v -7.976562 c 0 -1.667969 -1.34375 -3.011719 -3.011719 -3.011719 z m 3.675781 2.605469 c 1.878906 0 3.097656 1.015625 3.097656 2.570312 c -0.03125 1.175781 -0.597656 1.976563 -2.628906 4.054688 h 2.84375 v 1.789062 h -6 v -1.457031 c 2.164062 -1.792969 3.632812 -3.035156 3.632812 -4.0625 c 0 -0.644531 -0.523437 -1.085938 -1.351562 -1.085938 c -0.59375 0 -1.253906 0.238282 -1.921875 0.703126 l -0.527344 -1.515626 c 0.800781 -0.660156 1.78125 -0.996093 2.855469 -0.996093 z m 0 0" fill="#222222"/>
</svg>
