<?xml version="1.0" encoding="UTF-8"?>
<svg height="16px" viewBox="0 0 16 16" width="16px" xmlns="http://www.w3.org/2000/svg">
    <path d="m 4.011719 1 c -1.667969 0 -3.011719 1.34375 -3.011719 3.011719 v 7.976562 c 0 1.667969 1.34375 3.011719 3.011719 3.011719 h 7.976562 c 1.667969 0 3.011719 -1.34375 3.011719 -3.011719 v -7.976562 c 0 -1.667969 -1.34375 -3.011719 -3.011719 -3.011719 z m 4 2.667969 c 1.839843 0 2.9375 0.839843 2.9375 2.226562 c -0.023438 0.929688 -0.507813 1.492188 -1.335938 1.8125 c 1.097657 0.222657 1.804688 1.011719 1.804688 2.058594 c 0 1.46875 -1.46875 2.4375 -3.707031 2.4375 c -0.976563 0 -1.742188 -0.179687 -2.628907 -0.597656 l 0.480469 -1.613281 c 0.691406 0.285156 1.503906 0.441406 2.234375 0.441406 c 0.945313 0 1.46875 -0.273438 1.46875 -0.765625 c 0 -0.59375 -0.773437 -0.992188 -1.984375 -0.992188 h -0.574219 v -1.550781 h 0.574219 c 0.910156 0 1.519531 -0.371094 1.519531 -0.921875 c 0 -0.476563 -0.476562 -0.765625 -1.21875 -0.765625 c -0.585937 0 -1.230469 0.179688 -1.972656 0.503906 l -0.464844 -1.542968 c 0.90625 -0.488282 1.886719 -0.730469 2.867188 -0.730469 z m 0 0" fill="#222222"/>
</svg>
