<?xml version="1.0" encoding="UTF-8"?>
<svg height="16px" viewBox="0 0 16 16" width="16px" xmlns="http://www.w3.org/2000/svg">
    <g fill="#222222">
        <path d="m 1 2 h 1 v 4 h -1 z m 0 0"/>
        <path d="m 1 4 h 3 v 1 h -3 z m 0 0"/>
        <path d="m 3 2 h 1 v 4 h -1 z m 0 0"/>
        <path d="m 5 2 h 1 v 4 h -1 z m 0 0"/>
        <path d="m 5 2 h 2 v 1 h -2 z m 0 0"/>
        <path d="m 5 5 h 2 v 1 h -2 z m 0 0"/>
        <path d="m 7 3 h 1 v 2 h -1 z m 0 0"/>
        <path d="m 9 2 h 1 v 4 h -1 z m 0 0"/>
        <path d="m 12 2 h 1 v 4 h -1 z m 0 0"/>
        <path d="m 14 2 h 1 v 4 h -1 z m 0 0"/>
        <path d="m 10 3 h 2 v 1 h -2 z m 0 0"/>
        <path d="m 0 8 v 3 c 0 1.105469 0.894531 2 2 2 c 0.613281 0 1.171875 0.347656 1.445312 0.894531 l 0.109376 0.210938 c 0.273437 0.546875 0.832031 0.894531 1.445312 0.894531 h 6 c 0.613281 0 1.171875 -0.347656 1.445312 -0.894531 l 0.109376 -0.210938 c 0.273437 -0.546875 0.832031 -0.894531 1.445312 -0.894531 c 1.105469 0 2 -0.894531 2 -2 v -3 c 0 -0.550781 -0.449219 -1 -1 -1 h -14 c -0.550781 0 -1 0.449219 -1 1 z m 3 1 h 10 c 0.550781 0 1 0.449219 1 1 s -0.449219 1 -1 1 c -1.070312 0.105469 -1.984375 0.820312 -2.347656 1.835938 c -0.136719 0.15625 -0.355469 0.222656 -0.558594 0.164062 h -4.277344 c -0.296875 0 -0.566406 -0.160156 -0.710937 -0.417969 l -0.273438 -0.488281 c -0.371093 -0.675781 -1.082031 -1.09375 -1.851562 -1.09375 c -0.546875 -0.007812 -0.988281 -0.453125 -0.980469 -1 c 0 -0.550781 0.449219 -1 1 -1 z m 0 0"/>
    </g>
</svg>
