<?xml version="1.0" encoding="UTF-8"?>
<svg height="16px" viewBox="0 0 16 16" width="16px" xmlns="http://www.w3.org/2000/svg">
    <g fill="#222222">
        <path d="m 7.5 0 c 0.277344 0 0.5 0.222656 0.5 0.5 v 14 c 0 0.277344 -0.222656 0.5 -0.5 0.5 s -0.5 -0.222656 -0.5 -0.5 v -14 c 0 -0.277344 0.222656 -0.5 0.5 -0.5 z m 0 0"/>
        <path d="m 0.550781 7 h 14 c 0.273438 0 0.5 0.222656 0.5 0.5 s -0.226562 0.5 -0.5 0.5 h -14 c -0.277343 0 -0.4999998 -0.222656 -0.4999998 -0.5 s 0.2226568 -0.5 0.4999998 -0.5 z m 0 0"/>
        <path d="m 7.5 4.855469 c 1.261719 0 2.347656 0.890625 2.59375 2.128906 s -0.417969 2.476563 -1.582031 2.960937 c -1.164063 0.480469 -2.511719 0.074219 -3.210938 -0.976562 c -0.699219 -1.046875 -0.5625 -2.449219 0.328125 -3.339844 c 0.109375 -0.105468 0.152344 -0.265625 0.113282 -0.414062 c -0.039063 -0.144532 -0.15625 -0.261719 -0.304688 -0.300782 c -0.148438 -0.039062 -0.304688 0.003907 -0.414062 0.109376 c -1.179688 1.183593 -1.359376 3.03125 -0.433594 4.421874 c 0.929687 1.386719 2.707031 1.925782 4.25 1.289063 c 1.542968 -0.640625 2.417968 -2.277344 2.09375 -3.917969 c -0.328125 -1.636718 -1.761719 -2.816406 -3.433594 -2.816406 c -0.234375 0 -0.425781 0.191406 -0.425781 0.425781 c 0 0.238281 0.191406 0.429688 0.425781 0.429688 z m 0 0"/>
        <path d="m 7.476562 2.800781 c 2.226563 0 4.148438 1.578125 4.582032 3.761719 c 0.433594 2.1875 -0.734375 4.375 -2.792969 5.230469 c -2.058594 0.851562 -4.4375 0.128906 -5.675781 -1.722657 c -1.238282 -1.851562 -0.996094 -4.324218 0.582031 -5.898437 c 0.359375 -0.363281 0.363281 -0.949219 0 -1.3125 c -0.363281 -0.359375 -0.949219 -0.359375 -1.308594 0 c -2.203125 2.203125 -2.542969 5.652344 -0.8125 8.238281 c 1.730469 2.589844 5.046875 3.597656 7.921875 2.40625 s 4.507813 -4.25 3.902344 -7.300781 c -0.609375 -3.054687 -3.285156 -5.253906 -6.398438 -5.253906 c -0.511718 0 -0.925781 0.414062 -0.925781 0.925781 s 0.414063 0.925781 0.925781 0.925781 z m 0 0"/>
        <path d="m 7.472656 7.519531 l -4.535156 -4.539062 z m 0 0"/>
        <path d="m 6.765625 8.226562 l -4.535156 -4.539062 c -0.390625 -0.390625 -0.390625 -1.023438 0 -1.414062 c 0.390625 -0.390626 1.027343 -0.390626 1.414062 0 l 4.535157 4.539062 c 0.390624 0.390625 0.390624 1.023438 0 1.414062 c -0.390626 0.390626 -1.023438 0.390626 -1.414063 0 z m 0 0"/>
    </g>
</svg>
