<?xml version="1.0" encoding="UTF-8"?>
<svg height="16px" viewBox="0 0 16 16" width="16px" xmlns="http://www.w3.org/2000/svg">
    <g fill="#222222">
        <path d="m 2 1 c -1.109375 0 -2 0.890625 -2 2 v 3 h 16 v -3 c 0 -1.109375 -0.890625 -2 -2 -2 z m 0.894531 2 h 1.082031 l -0.5 2 h -1.476562 l 0.007812 -1.113281 c 0.003907 -0.492188 0.394532 -0.886719 0.886719 -0.886719 z m 2.628907 0 h 1.953124 l -0.5 2 h -1.953124 z m 3.5 0 h 1.953124 l -0.5 2 h -1.953124 z m 3.5 0 h 0.617187 c 0.492187 0 0.890625 0.394531 0.890625 0.886719 l -0.011719 1.113281 h -1.996093 z m -12.523438 4 v 6 c 0 1.109375 0.890625 2 2 2 h 12 c 1.109375 0 2 -0.890625 2 -2 v -6 h -1.96875 v 5.105469 c 0 0.492187 -0.398438 0.886719 -0.890625 0.886719 h -10.246094 c -0.492187 0 -0.886719 -0.394532 -0.886719 -0.886719 v -5.105469 z m 0 0"/>
        <path d="m 6.71875 6.875 c 0.09375 0.003906 0.1875 0.023438 0.269531 0.0625 l 3.449219 1.585938 c 0.71875 0.328124 0.722656 1.347656 0.007812 1.683593 l -3.457031 1.617188 c -0.460937 0.214843 -0.988281 -0.121094 -0.988281 -0.628907 v -3.621093 c 0 -0.394531 0.324219 -0.710938 0.71875 -0.699219 z m 0 0"/>
    </g>
</svg>
