<?xml version="1.0" encoding="UTF-8"?>
<svg height="16px" viewBox="0 0 16 16" width="16px" xmlns="http://www.w3.org/2000/svg">
    <g fill="#222222">
        <path d="m 8 1.992188 c -1.394531 0 -2.792969 0.269531 -4.085938 0.800781 l 1.617188 1.578125 c 2.839844 -0.804688 6.128906 -0.183594 8.277344 1.871094 l 0.5 0.476562 c 0.398437 0.382812 1.03125 0.371094 1.414062 -0.027344 c 0.378906 -0.398437 0.367188 -1.03125 -0.03125 -1.410156 l -0.496094 -0.480469 c -1.957031 -1.875 -4.578124 -2.808593 -7.195312 -2.808593 z m -5.507812 1.515624 c -0.597657 0.363282 -1.167969 0.792969 -1.6875 1.292969 l -0.496094 0.480469 c -0.3984378 0.378906 -0.410156 1.011719 -0.03125 1.410156 c 0.382812 0.398438 1.015625 0.410156 1.414062 0.027344 l 0.5 -0.476562 c 0.539063 -0.511719 1.148438 -0.9375 1.804688 -1.273438 z m 5.476562 2.492188 c -0.242188 0 -0.476562 0.019531 -0.714844 0.050781 l 2.410156 2.34375 c 0.417969 0.179688 0.796876 0.433594 1.097657 0.769531 l 0.5 0.542969 c 0.371093 0.410157 1.003906 0.441407 1.414062 0.070313 c 0.40625 -0.371094 0.4375 -1.007813 0.0625 -1.414063 l -0.5 -0.550781 c -1.125 -1.230469 -2.703125 -1.824219 -4.269531 -1.8125 z m -2.390625 0.511719 c -0.679687 0.304687 -1.300781 0.738281 -1.816406 1.300781 l -0.5 0.550781 c -0.375 0.40625 -0.347657 1.042969 0.0625 1.414063 c 0.410156 0.371094 1.042969 0.339844 1.414062 -0.070313 l 0.5 -0.542969 c 0.492188 -0.542968 1.222657 -0.886718 2.011719 -1.019531 z m 0 0"/>
        <path d="m 5 11 h 2 v 5 h -2 z m 0 0"/>
        <path d="m 9 11 h 2 v 5 h -2 z m 0 0"/>
        <path d="m 3.285156 0.0820312 l -1.058594 1.0585938 l 11.429688 11.167969 l 1.0625 -1.0625 z m 0 0"/>
    </g>
</svg>
