<?xml version="1.0" encoding="UTF-8"?>
<svg height="16px" viewBox="0 0 16 16" width="16px" xmlns="http://www.w3.org/2000/svg">
    <path d="m 10 3 c -0.34375 0 -0.679688 0.046875 -1 0.132812 v 6.867188 h -2 v -5.636719 c -0.25 0.285157 -0.464844 0.613281 -0.628906 0.96875 c -0.140625 -0.070312 -0.289063 -0.132812 -0.441406 -0.183593 c -0.148438 -0.046876 -0.300782 -0.085938 -0.457032 -0.109376 c -0.15625 -0.027343 -0.3125 -0.039062 -0.472656 -0.039062 c -1.445312 0.003906 -2.679688 1.03125 -2.945312 2.449219 c -0.035157 0.183593 -0.054688 0.367187 -0.054688 0.550781 c 0 0.175781 0.015625 0.347656 0.046875 0.515625 c 0 0.003906 0.003906 0.011719 0.003906 0.015625 c 0.027344 0.160156 0.070313 0.316406 0.125 0.46875 c 0 0.007812 0.003907 0.015625 0.003907 0.023438 c -1.246094 0.160156 -2.179688 1.21875 -2.179688 2.476562 c 0 1.378906 1.121094 2.5 2.5 2.5 h 10.5 c 1.65625 0 3 -1.34375 3 -3 c -0.003906 -1.332031 -0.882812 -2.503906 -2.164062 -2.875 c 0.109374 -0.367188 0.164062 -0.746094 0.164062 -1.125 c 0 -2.210938 -1.789062 -4 -4 -4 z m -3 8 h 2 v 2 h -2 z m 0 0" fill="#222222"/>
</svg>
