<?xml version="1.0" encoding="UTF-8"?>
<svg height="16px" viewBox="0 0 16 16" width="16px" xmlns="http://www.w3.org/2000/svg">
    <path d="m 4.273438 1.726562 l -1.546876 1.546876 c -0.464843 0.464843 -0.726562 1.09375 -0.726562 1.753906 v 6.945312 c 0 0.566406 0.460938 1.027344 1.027344 1.027344 h 1.972656 v 3 l 3 -3 h 1.972656 c 0.660156 0 1.289063 -0.261719 1.753906 -0.726562 l 2.546876 -2.546876 c 0.464843 -0.464843 0.726562 -1.09375 0.726562 -1.753906 l -0.011719 -5.972656 c 0 -0.566406 -0.460937 -1.023438 -1.027343 -1.023438 l -7.933594 0.019532 c -0.660156 0.003906 -1.289063 0.265625 -1.753906 0.730468 z m 1.726562 1.273438 h 6 c 0.550781 0 1 0.449219 1 1 v 3 c 0 0.640625 -0.253906 1.253906 -0.707031 1.707031 l -0.585938 0.585938 c -0.453125 0.453125 -1.066406 0.707031 -1.707031 0.707031 h -1 l -1 1 v -1 h -2 c -0.550781 0 -1 -0.449219 -1 -1 v -5 c 0 -0.550781 0.449219 -1 1 -1 z m 1 2 v 3 h 1 v -3 z m 3 0 v 3 h 1 v -3 z m 0 0" fill="#222222"/>
</svg>
