<?xml version="1.0" encoding="UTF-8"?>
<svg height="16px" viewBox="0 0 16 16" width="16px" xmlns="http://www.w3.org/2000/svg">
    <g fill="#222222">
        <path d="m 2.84375 1 c -1.003906 0 -1.84375 0.839844 -1.84375 1.84375 v 8.3125 c 0 1.003906 0.839844 1.84375 1.84375 1.84375 h 0.164062 c 0 -0.515625 0.191407 -1.027344 0.578126 -1.414062 l 2 -2 c 0 -0.003907 0.003906 -0.003907 0.007812 -0.003907 c 0.367188 -0.367187 0.871094 -0.5625 1.390625 -0.566406 l 0.015625 -0.015625 h 1 c 0 -1.046875 0.953125 -2 2 -2 h 2 v -4.15625 c 0 -1.003906 -0.839844 -1.84375 -1.84375 -1.84375 z m 2.148438 4.132812 h 0.621093 c 0.125 0 0.242188 0.035157 0.34375 0.105469 l 1.871094 1.242188 c 0.371094 0.25 0.371094 0.789062 0 1.039062 l -1.871094 1.242188 c -0.101562 0.070312 -0.21875 0.105469 -0.34375 0.105469 h -0.621093 z m 4.007812 5.429688 v 0.4375 h 1 c -0.375 0 -0.6875 -0.230469 -1 -0.4375 z m 0 0"/>
        <path d="m 10 8 c -0.550781 0 -1 0.449219 -1 1 s 0.449219 1 1 1 h 3 c 0.5625 0 1 0.4375 1 1 s -0.4375 1 -1 1 h -5 v -2 h -1 v 0.007812 c -0.265625 -0.003906 -0.519531 0.101563 -0.707031 0.285157 l -2 2 c -0.390625 0.390625 -0.390625 1.023437 0 1.414062 l 2 2 c 0.1875 0.183594 0.441406 0.289063 0.707031 0.289063 v 0.003906 h 1 v -2 h 5 c 1.644531 0 3 -1.355469 3 -3 s -1.355469 -3 -3 -3 z m 0 0"/>
    </g>
</svg>
