<?xml version="1.0" encoding="UTF-8"?>
<svg height="16px" viewBox="0 0 16 16" width="16px" xmlns="http://www.w3.org/2000/svg">
    <path d="m 5.113281 1 c -1.726562 0 -3.113281 1.386719 -3.113281 3.113281 v 8.773438 c 0 1.726562 1.386719 3.113281 3.113281 3.113281 h 5.773438 c 1.726562 0 3.113281 -1.386719 3.113281 -3.113281 v -4.886719 l -2 2 v 3.171875 c 0 0.433594 -0.347656 0.78125 -0.78125 0.78125 h -6.4375 c -0.433594 0 -0.78125 -0.347656 -0.78125 -0.78125 v -9.390625 c 0 -0.433594 0.347656 -0.78125 0.78125 -0.78125 h 6.4375 c 0.433594 0 0.78125 0.347656 0.78125 0.78125 v 1.03125 l 1.792969 -1.808594 c -0.445313 -1.171875 -1.574219 -2.003906 -2.90625 -2.003906 z m 9.878907 2 c -0.265626 0 -0.519532 0.105469 -0.703126 0.292969 h -0.003906 l -6.292968 6.316406 v 1.390625 h 1.390624 l 6.316407 -6.292969 l -0.003907 -0.003906 c 0.191407 -0.183594 0.296876 -0.4375 0.296876 -0.703125 c 0 -0.550781 -0.449219 -1 -1 -1 z m 0 0" fill="#222222"/>
</svg>
