<?xml version="1.0" encoding="UTF-8"?>
<svg height="16px" viewBox="0 0 16 16" width="16px" xmlns="http://www.w3.org/2000/svg">
    <path d="m 3 2.1875 c -1.105469 0.097656 -1.875 0.898438 -2 2 c -0.261719 2.316406 -0.289062 5.207031 0 7.613281 c 0.132812 1.101563 0.898438 1.871094 2 2 c 3.375 0.394531 6.066406 0.339844 10 0 c 1.105469 -0.09375 1.914062 -0.894531 2 -2 c 0.167969 -2.15625 0.207031 -5.605469 0 -7.613281 c -0.113281 -1.101562 -0.898438 -1.890625 -2 -2 c -3.425781 -0.316406 -6.832031 -0.277344 -10 0 z m 3.03125 3.726562 l 4.9375 2.097657 l -4.9375 2.046875 z m 0 0" fill="#222222"/>
</svg>
