<?xml version="1.0" encoding="UTF-8"?>
<svg height="16px" viewBox="0 0 16 16" width="16px" xmlns="http://www.w3.org/2000/svg">
    <g fill="#222222">
        <path d="m 13.078125 10.0625 v 3.5625 c 0 1.722656 -2.214844 3.179688 -3.515625 1.875 l 0.027344 0.027344 l -1.527344 -1.410156 c -0.199219 -0.183594 -0.3125 -0.441407 -0.320312 -0.710938 c -0.007813 -0.269531 0.097656 -0.53125 0.285156 -0.722656 l 4.769531 -4.863282 c 0.769531 -0.789062 1.203125 -1.847656 1.203125 -2.945312 v -3.875 l 1 1 h -3.875 c -1.097656 0 -2.15625 0.433594 -2.941406 1.203125 l -4.839844 4.75 c -0.195312 0.1875 -0.453125 0.292969 -0.726562 0.285156 c -0.269532 -0.007812 -0.523438 -0.121093 -0.707032 -0.320312 l -1.414062 -1.527344 l 0.027344 0.027344 c -1.253907 -1.253907 0.140624 -3.546875 1.847656 -3.546875 h 3.558594 c 0.554687 0 1 0.449218 1 1 c 0 0.554687 -0.445313 1 -1 1 h -3.558594 c -0.0625 0 -0.164063 0.058594 -0.261719 0.226562 c -0.007813 0.015625 -0.015625 0.03125 -0.023437 0.046875 c -0.003907 0.011719 -0.007813 0.023438 -0.011719 0.035157 c -0.007813 0.011718 -0.007813 0.019531 -0.011719 0.027343 c 0 0.007813 -0.003906 0.015625 -0.003906 0.019531 c 0 0.003907 -0.003906 0.007813 -0.003906 0.011719 v 0.003907 s -0.117188 -0.238282 -0.117188 -0.238282 c 0.011719 0.011719 0.019531 0.019532 0.027344 0.027344 l 1.414062 1.527344 l -1.4375 -0.035156 l 4.839844 -4.746094 c 1.160156 -1.140625 2.71875 -1.777344 4.347656 -1.777344 h 3.871094 c 0.550781 0 1 0.449219 1 1 v 3.875 c 0 1.625 -0.636719 3.183594 -1.773438 4.34375 l -4.769531 4.863281 l -0.035156 -1.433593 l 1.523437 1.410156 c 0.011719 0.011718 0.019532 0.019531 0.03125 0.027344 c 0 0 -0.21875 -0.097657 -0.21875 -0.097657 h -0.007812 h -0.003906 h 0.003906 c 0.003906 0 0.007812 0 0.011719 -0.003906 c 0.007812 0 0.011719 -0.003906 0.019531 -0.007813 c 0.007812 -0.003906 0.019531 -0.007812 0.03125 -0.011718 c 0.011719 -0.007813 0.023438 -0.015625 0.035156 -0.023438 c 0.148438 -0.089844 0.226563 -0.230468 0.226563 -0.316406 v -3.5625 c 0 -0.550781 0.449219 -1 1 -1 c 0.554687 0 1 0.449219 1 1 z m 0 0"/>
        <path d="m 7.707031 9.707031 l -3 3 c -0.390625 0.390625 -1.023437 0.390625 -1.414062 0 s -0.390625 -1.023437 0 -1.414062 l 3 -3 c 0.390625 -0.390625 1.023437 -0.390625 1.414062 0 s 0.390625 1.023437 0 1.414062 z m 0 0"/>
        <path d="m 12 5 c 0 0.550781 -0.449219 1 -1 1 s -1 -0.449219 -1 -1 s 0.449219 -1 1 -1 s 1 0.449219 1 1 z m 0 0"/>
    </g>
</svg>
