<?xml version="1.0" encoding="UTF-8"?>
<svg height="16px" viewBox="0 0 16 16" width="16px" xmlns="http://www.w3.org/2000/svg">
    <g fill="#222222">
        <path d="m 7 0 v 1 h -5 c -1.109375 0 -2 0.890625 -2 2 v 3 h 7 v 0.945312 l -0.011719 -0.007812 c -0.082031 -0.039062 -0.175781 -0.058594 -0.265625 -0.0625 h -0.003906 c -0.394531 -0.011719 -0.71875 0.304688 -0.71875 0.695312 v 3.625 c 0 0.507813 0.527344 0.84375 0.988281 0.628907 l 0.011719 -0.007813 v 1.175782 h -4.105469 c -0.492187 0 -0.886719 -0.394532 -0.886719 -0.890626 v -5.101562 h -2.007812 v 6 c 0 1.109375 0.890625 2 2 2 h 5 v 1 h 1 v -16 z m -4.105469 3 h 1.082031 l -0.5 2 h -1.476562 l 0.007812 -1.113281 c 0.003907 -0.492188 0.394532 -0.886719 0.886719 -0.886719 z m 2.628907 0 h 1.476562 v 1.90625 l -0.023438 0.09375 h -1.953124 z m 0 0"/>
        <path d="m 9 1 v 2.09375 l 0.023438 -0.09375 h 1.953124 l -0.5 2 h -1.476562 v 1 h 7 v -3 c 0 -1.109375 -0.890625 -2 -2 -2 z m 3.523438 2 h 0.617187 c 0.492187 0 0.890625 0.394531 0.890625 0.886719 l -0.011719 1.113281 h -1.996093 z m 1.507812 4 v 5.105469 c 0 0.492187 -0.398438 0.886719 -0.890625 0.886719 h -4.140625 v 2.007812 h 5 c 1.109375 0 2 -0.890625 2 -2 v -6 z m -5.03125 0.863281 v 3.019531 l 1.445312 -0.675781 c 0.714844 -0.335937 0.710938 -1.355469 -0.007812 -1.683593 z m 0 0" fill-opacity="0.34902"/>
    </g>
</svg>
