<?xml version="1.0" encoding="UTF-8"?>
<svg height="16px" viewBox="0 0 16 16" width="16px" xmlns="http://www.w3.org/2000/svg">
    <path d="m 7.691406 0 c -3.976562 0.152344 -7.234375 3.203125 -7.6523435 7.15625 c -0.1406245 1.398438 0.0898435 2.804688 0.6679685 4.082031 l -0.019531 0.011719 c 0.042969 0.09375 0.089844 0.1875 0.140625 0.28125 c 1.210937 2.460938 3.601563 4.132812 6.332031 4.421875 c 2.839844 0.289063 5.621094 -0.957031 7.292969 -3.265625 l 0.015625 0.011719 c 0.097656 -0.132813 0.179688 -0.269531 0.261719 -0.410157 c 0.667969 -1.042968 1.089843 -2.226562 1.222656 -3.457031 c 0.460937 -4.394531 -2.726563 -8.332031 -7.121094 -8.7929685 c -0.207031 -0.0234375 -0.414062 -0.0273437 -0.617187 -0.0195313 c -0.175782 -0.0117187 -0.347656 -0.0195312 -0.523438 -0.0195312 z m -0.007812 2 c 0.3125 -0.015625 0.628906 -0.003906 0.941406 0.027344 c 2.574219 0.273437 4.6875 2.167968 5.234375 4.703125 c -0.699219 -0.640625 -1.589844 -1.050781 -2.558594 -1.152344 c -0.132812 -0.015625 -0.261719 -0.019531 -0.394531 -0.023437 c -0.085938 0.207031 -0.199219 0.410156 -0.335938 0.597656 c -0.96875 1.332031 -2.863281 1.632812 -4.191406 0.664062 c -1.332031 -0.964844 -1.628906 -2.855468 -0.664062 -4.1875 c 0.066406 -0.09375 0.140625 -0.179687 0.214844 -0.261718 c 0.5625 -0.207032 1.152343 -0.332032 1.753906 -0.367188 z m -3.71875 1.574219 c -0.195313 0.917969 -0.105469 1.886719 0.289062 2.769531 c 0.050782 0.121094 0.113282 0.234375 0.175782 0.347656 c 0.222656 -0.027344 0.453124 -0.03125 0.6875 -0.007812 c 1.636718 0.171875 2.84375 1.664062 2.671874 3.296875 c -0.171874 1.636719 -1.664062 2.84375 -3.296874 2.671875 c -0.109376 -0.011719 -0.214844 -0.027344 -0.316407 -0.050782 c -1.546875 -1.277343 -2.351562 -3.242187 -2.144531 -5.234374 c 0.160156 -1.457032 0.847656 -2.808594 1.933594 -3.792969 z m 7.019531 3.347656 c 1.167969 -0.015625 2.296875 0.652344 2.800781 1.777344 c 0.042969 0.097656 0.078125 0.195312 0.109375 0.292969 c -0.527343 3.117187 -3.382812 5.289062 -6.523437 4.96875 c -0.40625 -0.046876 -0.800782 -0.136719 -1.1875 -0.265626 c 0.890625 -0.285156 1.6875 -0.851562 2.253906 -1.632812 c 0.078125 -0.105469 0.148438 -0.214844 0.21875 -0.328125 c -0.136719 -0.179687 -0.257812 -0.378906 -0.351562 -0.59375 c -0.671876 -1.503906 0.015624 -3.289063 1.519531 -3.960937 c 0.375 -0.164063 0.769531 -0.25 1.160156 -0.257813 z m 0 0" fill="#222222"/>
</svg>
