<?xml version="1.0" encoding="UTF-8"?>
<svg height="16px" viewBox="0 0 16 16" width="16px" xmlns="http://www.w3.org/2000/svg">
    <g fill="#222222">
        <path d="m 8 0 c -4.417969 0 -8 3.582031 -8 8 s 3.582031 8 8 8 s 8 -3.582031 8 -8 s -3.582031 -8 -8 -8 z m 0 2 c 3.3125 0 6 2.6875 6 6 s -2.6875 6 -6 6 s -6 -2.6875 -6 -6 s 2.6875 -6 6 -6 z m 0 0"/>
        <path d="m 5 5.613281 v 4.78125 c 0 0.238281 0.121094 0.464844 0.324219 0.59375 c 0.203125 0.128907 0.460937 0.144531 0.679687 0.042969 l 4.695313 -2.199219 c 0.332031 -0.15625 0.542969 -0.488281 0.542969 -0.855469 c 0 -0.367187 -0.214844 -0.699218 -0.550782 -0.851562 l -4.6875 -2.15625 c -0.21875 -0.101562 -0.472656 -0.082031 -0.675781 0.046875 c -0.207031 0.132813 -0.328125 0.355469 -0.328125 0.597656 z m 0 0"/>
    </g>
</svg>
