<?xml version="1.0" encoding="UTF-8"?>
<svg height="16px" viewBox="0 0 16 16" width="16px" xmlns="http://www.w3.org/2000/svg">
    <path d="m 2 1 c -1.109375 0 -2 0.890625 -2 2 v 3 h 16 v -3 c 0 -1.109375 -0.890625 -2 -2 -2 z m 0.894531 2 h 1.082031 l -0.5 2 h -1.476562 l 0.007812 -1.113281 c 0.003907 -0.492188 0.394532 -0.886719 0.886719 -0.886719 z m 2.628907 0 h 1.953124 l -0.5 2 h -1.953124 z m 3.5 0 h 1.953124 l -0.5 2 h -1.953124 z m 3.5 0 h 0.617187 c 0.492187 0 0.890625 0.394531 0.890625 0.886719 l -0.011719 1.113281 h -1.996093 z m -5.878907 3.875 c -0.359375 0.027344 -0.644531 0.328125 -0.644531 0.699219 v 1.425781 h 2 c 0 -0.0625 0.003906 -0.128906 0.011719 -0.191406 c 0.003906 -0.050782 0.011719 -0.097656 0.019531 -0.148438 c 0.003906 -0.015625 0.003906 -0.03125 0.007812 -0.042968 c 0.007813 -0.03125 0.011719 -0.058594 0.019532 -0.085938 c 0.007812 -0.039062 0.019531 -0.074219 0.03125 -0.113281 c 0.011718 -0.039063 0.027344 -0.074219 0.042968 -0.113281 c 0.003907 -0.015626 0.007813 -0.027344 0.015626 -0.042969 c 0.015624 -0.039063 0.03125 -0.074219 0.050781 -0.113281 c 0.011719 -0.027344 0.023437 -0.050782 0.039062 -0.078126 c 0.015625 -0.03125 0.03125 -0.0625 0.050781 -0.09375 c 0.011719 -0.015624 0.019532 -0.03125 0.03125 -0.046874 c 0.023438 -0.039063 0.050782 -0.078126 0.082032 -0.117188 c 0.007812 -0.011719 0.015625 -0.027344 0.027344 -0.039062 c 0.035156 -0.042969 0.070312 -0.085938 0.109374 -0.125 l -1.550781 -0.710938 c -0.082031 -0.039062 -0.175781 -0.058594 -0.265625 -0.0625 h -0.003906 c -0.023438 0 -0.046875 -0.003906 -0.070312 0 z m -6.644531 0.125 v 6 c 0 1.109375 0.890625 2 2 2 h 2.171875 l -0.585937 -0.585938 c -0.386719 -0.386718 -0.582032 -0.90625 -0.578126 -1.421874 h -0.113281 c -0.492187 0 -0.886719 -0.394532 -0.886719 -0.886719 v -5.105469 z m 14.03125 0 v 0.136719 c 0.769531 0.207031 1.453125 0.644531 1.96875 1.230469 v -1.367188 z m -4.03125 1 c -0.550781 0 -1 0.449219 -1 1 s 0.449219 1 1 1 h 3 c 0.5625 0 1 0.4375 1 1 s -0.4375 1 -1 1 h -5 v -2 h -1 v 0.007812 c -0.265625 -0.003906 -0.519531 0.101563 -0.707031 0.285157 l -2 2 c -0.390625 0.390625 -0.390625 1.023437 0 1.414062 l 2 2 c 0.1875 0.183594 0.441406 0.289063 0.707031 0.289063 v 0.003906 h 1 v -2 h 5 c 1.644531 0 3 -1.355469 3 -3 s -1.355469 -3 -3 -3 z m 0 0" fill="#222222"/>
</svg>
