<?xml version="1.0" encoding="UTF-8"?>
<svg height="16px" viewBox="0 0 16 16" width="16px" xmlns="http://www.w3.org/2000/svg">
    <g fill="#222222">
        <path d="m 2 0 c -1.109375 0 -2 0.890625 -2 2 v 12 c 0 1.109375 0.890625 2 2 2 h 12 c 1.109375 0 2 -0.890625 2 -2 v -12 c 0 -1.109375 -0.890625 -2 -2 -2 z m 10.972656 1.027344 l 0.007813 0.007812 h 0.019531 v 0.019532 l 0.5 0.5 l 0.5 -0.496094 v -0.023438 h 0.027344 l 0.003906 -0.007812 l 0.007812 0.007812 h 0.960938 v 0.964844 l 0.019531 0.019531 l -0.527343 0.523438 l 0.488281 0.488281 h 0.019531 v 0.019531 l 0.019531 0.019531 l -0.019531 0.019532 v 0.941406 h -0.941406 l -0.027344 0.027344 l -0.027344 -0.027344 h -0.003906 v -0.003906 l -0.5 -0.496094 l -0.527344 0.527344 l -0.027344 -0.027344 h -0.945312 v -0.945312 l -0.019531 -0.015626 l 0.019531 -0.019531 v -0.019531 h 0.019531 l 0.488281 -0.488281 l -0.527343 -0.523438 l 0.019531 -0.019531 v -0.96875 h 0.964844 z m -10.078125 3.972656 h 10.246094 c 0.492187 0 0.886719 0.394531 0.886719 0.886719 v 7.214843 c 0 0.492188 -0.394532 0.890626 -0.886719 0.890626 h -10.246094 c -0.492187 0 -0.886719 -0.398438 -0.886719 -0.890626 v -7.214843 c 0 -0.492188 0.394532 -0.886719 0.886719 -0.886719 z m 0 0"/>
        <path d="m 6.71875 6.875 c 0.09375 0.003906 0.1875 0.023438 0.269531 0.0625 l 3.449219 1.585938 c 0.71875 0.328124 0.722656 1.347656 0.007812 1.683593 l -3.457031 1.617188 c -0.460937 0.214843 -0.988281 -0.121094 -0.988281 -0.628907 v -3.621093 c 0 -0.394531 0.324219 -0.710938 0.71875 -0.699219 z m 0 0"/>
    </g>
</svg>
