<?xml version="1.0" encoding="UTF-8"?>
<svg height="16px" viewBox="0 0 16 16" width="16px" xmlns="http://www.w3.org/2000/svg">
    <g fill="#222222">
        <path d="m 8 1.992188 c -2.617188 0 -5.238281 0.933593 -7.195312 2.808593 l -0.496094 0.480469 c -0.3984378 0.378906 -0.410156 1.011719 -0.03125 1.410156 c 0.382812 0.398438 1.015625 0.410156 1.414062 0.03125 l 0.5 -0.476562 c 3.085938 -2.957032 8.53125 -2.957032 11.617188 0 l 0.5 0.476562 c 0.398437 0.378906 1.03125 0.367188 1.414062 -0.03125 c 0.378906 -0.398437 0.367188 -1.03125 -0.03125 -1.410156 l -0.496094 -0.484375 c -1.957031 -1.871094 -4.578124 -2.804687 -7.195312 -2.804687 z m -0.03125 4.007812 c -1.570312 0.011719 -3.128906 0.628906 -4.207031 1.8125 l -0.5 0.550781 c -0.375 0.40625 -0.347657 1.042969 0.066406 1.414063 c 0.40625 0.371094 1.039063 0.339844 1.414063 -0.070313 l 0.496093 -0.546875 c 1.277344 -1.402344 4.160157 -1.496094 5.523438 0.003906 l 0.5 0.542969 c 0.371093 0.410157 1.003906 0.441407 1.414062 0.070313 c 0.40625 -0.371094 0.4375 -1.007813 0.0625 -1.414063 l -0.5 -0.546875 c -1.121093 -1.234375 -2.703125 -1.828125 -4.269531 -1.816406 z m 0 0"/>
        <path d="m 5.957031 10.683594 v 3.679687 c 0 0.242188 0.121094 0.464844 0.324219 0.59375 c 0.203125 0.128907 0.457031 0.148438 0.675781 0.046875 l 3.511719 -1.644531 c 0.332031 -0.15625 0.546875 -0.492187 0.542969 -0.855469 c 0 -0.367187 -0.214844 -0.699218 -0.546875 -0.855468 l -3.503906 -1.609376 c -0.21875 -0.101562 -0.476563 -0.082031 -0.679688 0.046876 c -0.203125 0.132812 -0.324219 0.355468 -0.324219 0.597656 z m 0 0"/>
    </g>
</svg>
