<?xml version="1.0" encoding="UTF-8"?>
<svg height="16px" viewBox="0 0 16 16" width="16px" xmlns="http://www.w3.org/2000/svg">
    <path d="m 2.554688 3.089844 c -0.863282 0 -1.554688 0.691406 -1.554688 1.554687 v 7.800781 c 0 0.863282 0.691406 1.554688 1.554688 1.554688 h 6.914062 c 0.863281 0 1.558594 -0.691406 1.558594 -1.554688 v -3.292968 c 0.023437 0.019531 0.042968 0.035156 0.066406 0.054687 l 2.613281 1.386719 c 0.550781 0.367188 1.292969 -0.027344 1.292969 -0.691406 v -3.367188 c 0 -0.664062 -0.742188 -1.058594 -1.292969 -0.691406 l -2.613281 1.421875 c -0.023438 0.015625 -0.042969 0.035156 -0.066406 0.054687 v -2.675781 c 0 -0.863281 -0.695313 -1.554687 -1.558594 -1.554687 z m 3.453124 2.066406 c 1.347657 0.003906 2.691407 0.46875 3.78125 1.394531 c 0.097657 0.082031 0.15625 0.199219 0.167969 0.324219 c 0.007813 0.128906 -0.03125 0.25 -0.113281 0.347656 s -0.199219 0.15625 -0.324219 0.164063 c -0.125 0.011719 -0.25 -0.03125 -0.34375 -0.109375 c -1.828125 -1.558594 -4.507812 -1.566406 -6.34375 -0.011719 c -0.199219 0.167969 -0.496093 0.140625 -0.664062 -0.058594 c -0.082031 -0.097656 -0.125 -0.21875 -0.113281 -0.347656 c 0.011718 -0.125 0.070312 -0.242187 0.164062 -0.324219 c 1.09375 -0.921875 2.441406 -1.382812 3.789062 -1.378906 z m -0.011718 2.339844 c 0.898437 0 1.796875 0.34375 2.480468 1.023437 c 0.183594 0.1875 0.183594 0.488281 0 0.671875 c -0.089843 0.089844 -0.210937 0.140625 -0.335937 0.140625 s -0.246094 -0.050781 -0.335937 -0.140625 c -1.003907 -1.003906 -2.613282 -1.003906 -3.617188 0 c -0.085938 0.089844 -0.207031 0.140625 -0.335938 0.140625 c -0.125 0 -0.246093 -0.050781 -0.332031 -0.140625 c -0.1875 -0.183594 -0.1875 -0.484375 0 -0.671875 c 0.679688 -0.679687 1.578125 -1.023437 2.476563 -1.023437 z m 0 2.554687 c 0.523437 0 0.949218 0.425781 0.949218 0.949219 s -0.425781 0.949219 -0.949218 0.949219 c -0.523438 0 -0.949219 -0.425781 -0.949219 -0.949219 s 0.425781 -0.949219 0.949219 -0.949219 z m 0 0" fill="#241f31"/>
</svg>
