<?xml version="1.0" encoding="UTF-8"?>
<svg height="16px" viewBox="0 0 16 16" width="16px" xmlns="http://www.w3.org/2000/svg" xmlns:xlink="http://www.w3.org/1999/xlink">
    <filter id="a" height="100%" width="100%" x="0%" y="0%">
        <feColorMatrix in="SourceGraphic" type="matrix" values="0 0 0 0 1 0 0 0 0 1 0 0 0 0 1 0 0 0 1 0"/>
    </filter>
    <mask id="b">
        <g filter="url(#a)">
            <rect fill-opacity="0.17159" height="16" width="16"/>
        </g>
    </mask>
    <linearGradient id="c" gradientUnits="userSpaceOnUse" x1="37.999704" x2="113.389648" y1="61.986099" y2="113.646484">
        <stop offset="0" stop-color="#ffffff" stop-opacity="0"/>
        <stop offset="0.160638" stop-color="#ffffff" stop-opacity="0.839216"/>
        <stop offset="0.34608" stop-color="#ffffff" stop-opacity="0.109804"/>
        <stop offset="0.441021" stop-color="#ffffff"/>
        <stop offset="0.537248" stop-color="#ffffff" stop-opacity="0"/>
        <stop offset="0.811507" stop-color="#ffffff" stop-opacity="0.184314"/>
        <stop offset="0.878892" stop-color="#ffffff"/>
        <stop offset="0.953738" stop-color="#ffffff" stop-opacity="0.043137"/>
        <stop offset="1" stop-color="#ffffff" stop-opacity="0"/>
    </linearGradient>
    <clipPath id="d">
        <rect height="152" width="192"/>
    </clipPath>
    <path d="m 1.800781 1 c -0.996093 0 -1.800781 0.804688 -1.800781 1.800781 v 7.398438 c 0 0.996093 0.804688 1.800781 1.800781 1.800781 h 0.199219 v 0.199219 c 0 0.996093 0.804688 1.800781 1.800781 1.800781 h 7.398438 c 0.996093 0 1.800781 -0.804688 1.800781 -1.800781 v -0.199219 h 0.199219 c 0.996093 0 1.800781 -0.804688 1.800781 -1.800781 v -7.398438 c 0 -0.996093 -0.804688 -1.800781 -1.800781 -1.800781 z m 0.199219 2 h 3 v 3 h -3 z m 4 0 h 3 v 3 h -3 z m 4 0 h 3 v 3 h -3 z m -8 4 h 3 v 3 h -3 z m 4 0 h 3 v 3 h -3 z m 4 0 h 3 v 3 h -3 z m 0 0" fill="#241f31"/>
    <g clip-path="url(#d)" mask="url(#b)" transform="matrix(1 0 0 1 -168 -16)">
        <path d="m 28.171875 92 h 19.65625 c 2.3125 0 4.171875 1.859375 4.171875 4.171875 v 15.65625 c 0 2.3125 -1.859375 4.171875 -4.171875 4.171875 h -19.65625 c -2.3125 0 -4.171875 -1.859375 -4.171875 -4.171875 v -15.65625 c 0 -2.3125 1.859375 -4.171875 4.171875 -4.171875 z m 34 0 h 19.65625 c 2.3125 0 4.171875 1.859375 4.171875 4.171875 v 15.65625 c 0 2.3125 -1.859375 4.171875 -4.171875 4.171875 h -19.65625 c -2.3125 0 -4.171875 -1.859375 -4.171875 -4.171875 v -15.65625 c 0 -2.3125 1.859375 -4.171875 4.171875 -4.171875 z m 34 0 h 19.65625 c 2.3125 0 4.171875 1.859375 4.171875 4.171875 v 15.65625 c 0 2.3125 -1.859375 4.171875 -4.171875 4.171875 h -19.65625 c -2.3125 0 -4.171875 -1.859375 -4.171875 -4.171875 v -15.65625 c 0 -2.3125 1.859375 -4.171875 4.171875 -4.171875 z m 0 -34 h 19.65625 c 2.3125 0 4.171875 1.859375 4.171875 4.171875 v 15.65625 c 0 2.3125 -1.859375 4.171875 -4.171875 4.171875 h -19.65625 c -2.3125 0 -4.171875 -1.859375 -4.171875 -4.171875 v -15.65625 c 0 -2.3125 1.859375 -4.171875 4.171875 -4.171875 z m -34 0 h 19.65625 c 2.3125 0 4.171875 1.859375 4.171875 4.171875 v 15.65625 c 0 2.3125 -1.859375 4.171875 -4.171875 4.171875 h -19.65625 c -2.3125 0 -4.171875 -1.859375 -4.171875 -4.171875 v -15.65625 c 0 -2.3125 1.859375 -4.171875 4.171875 -4.171875 z m -34 0 h 19.65625 c 2.3125 0 4.171875 1.859375 4.171875 4.171875 v 15.65625 c 0 2.3125 -1.859375 4.171875 -4.171875 4.171875 h -19.65625 c -2.3125 0 -4.171875 -1.859375 -4.171875 -4.171875 v -15.65625 c 0 -2.3125 1.859375 -4.171875 4.171875 -4.171875 z m 0 0" fill="url(#c)"/>
    </g>
</svg>
