<?xml version="1.0" encoding="UTF-8" standalone="no"?>
<svg
   height="128px"
   viewBox="0 0 128 128"
   width="128px"
   version="1.1"
   id="svg97"
   sodipodi:docname="com.feaneron.Boatswain.Devel.svg"
   inkscape:version="1.1.2 (0a00cf5339, 2022-02-04)"
   xmlns:inkscape="http://www.inkscape.org/namespaces/inkscape"
   xmlns:sodipodi="http://sodipodi.sourceforge.net/DTD/sodipodi-0.dtd"
   xmlns:xlink="http://www.w3.org/1999/xlink"
   xmlns="http://www.w3.org/2000/svg"
   xmlns:svg="http://www.w3.org/2000/svg">
  <defs
     id="defs101" />
  <sodipodi:namedview
     id="namedview99"
     pagecolor="#505050"
     bordercolor="#ffffff"
     borderopacity="1"
     inkscape:pageshadow="0"
     inkscape:pageopacity="0"
     inkscape:pagecheckerboard="1"
     showgrid="false"
     inkscape:current-layer="svg97" />
  <linearGradient
     id="a"
     gradientUnits="userSpaceOnUse">
    <stop
       offset="0"
       stop-color="#1a5fb4"
       id="stop2" />
    <stop
       offset="1"
       stop-color="#26a269"
       id="stop4" />
  </linearGradient>
  <linearGradient
     id="b"
     x1="8"
     x2="106"
     xlink:href="#a"
     y1="114"
     y2="48" />
  <linearGradient
     id="c"
     gradientUnits="userSpaceOnUse"
     x1="8.61377"
     x2="119.862297"
     y1="118.915527"
     y2="118.915527">
    <stop
       offset="0"
       stop-color="#ffffff"
       stop-opacity="0"
       id="stop8" />
    <stop
       offset="0.051896"
       stop-color="#ffffff"
       stop-opacity="0.403922"
       id="stop10" />
    <stop
       offset="0.107234"
       stop-color="#ffffff"
       stop-opacity="0.031373"
       id="stop12" />
    <stop
       offset="0.688053"
       stop-color="#5588c7"
       stop-opacity="0.203922"
       id="stop14" />
    <stop
       offset="0.722398"
       stop-color="#ffffff"
       stop-opacity="0.447059"
       id="stop16" />
    <stop
       offset="0.793796"
       stop-color="#457dc2"
       stop-opacity="0.219608"
       id="stop18" />
    <stop
       offset="0.891949"
       stop-color="#1a5fb4"
       stop-opacity="0.266667"
       id="stop20" />
    <stop
       offset="0.942106"
       stop-color="#ffffff"
       stop-opacity="0.466667"
       id="stop22" />
    <stop
       offset="1"
       stop-color="#ffffff"
       stop-opacity="0"
       id="stop24" />
  </linearGradient>
  <linearGradient
     id="d"
     gradientUnits="userSpaceOnUse">
    <stop
       offset="0"
       stop-color="#99c1f1"
       id="stop27" />
    <stop
       offset="1"
       stop-color="#8ff0a4"
       id="stop29" />
  </linearGradient>
  <linearGradient
     id="e"
     x1="16"
     x2="104"
     xlink:href="#d"
     y1="104"
     y2="56" />
  <linearGradient
     id="f"
     x1="20"
     x2="108"
     xlink:href="#d"
     y1="104"
     y2="56" />
  <linearGradient
     id="g"
     x1="11.415394"
     x2="110.36864"
     xlink:href="#a"
     y1="114.865862"
     y2="48.22388" />
  <clipPath
     id="h">
    <rect
       height="128"
       width="128"
       id="rect35" />
  </clipPath>
  <clipPath
     id="i">
    <rect
       height="128"
       width="128"
       id="rect38" />
  </clipPath>
  <filter
     id="j"
     height="1"
     width="1"
     x="0"
     y="0">
    <feColorMatrix
       in="SourceGraphic"
       type="matrix"
       values="0 0 0 0 1 0 0 0 0 1 0 0 0 0 1 0 0 0 1 0"
       id="feColorMatrix41" />
  </filter>
  <mask
     id="k">
    <g
       clip-path="url(#i)"
       filter="url(#j)"
       id="g58">
      <g
         clip-path="url(#h)"
         id="g56">
        <path
           d="m 20 35.914062 c -6.648438 0 -12 5.351563 -12 12 v 60.171876 c 0 6.648437 5.351562 12 12 12 h 61.875 c 6.648438 0 12 -5.351563 12 -12 v -26.375 c 0.167969 0.152343 0.339844 0.300781 0.519531 0.4375 l 15.621094 11.660156 c 4.269531 2.847656 9.984375 -0.210938 9.984375 -5.34375 v -25.945313 c 0 -5.132812 -5.714844 -8.191406 -9.984375 -5.34375 l -15.621094 11.660157 c -0.179687 0.136718 -0.351562 0.285156 -0.519531 0.4375 v -21.359376 c 0 -6.648437 -5.351562 -12 -12 -12 z m 0 0"
           fill="url(#b)"
           id="path44" />
        <path
           d="m 20 35.914062 c -6.648438 0 -12 5.351563 -12 12 v 60.171876 c 0 6.648437 5.351562 12 12 12 h 61.875 c 6.648438 0 12 -5.351563 12 -12 v -26.375 c 0.167969 0.152343 0.339844 0.300781 0.519531 0.4375 l 15.621094 11.660156 c 4.269531 2.847656 9.984375 -0.210938 9.984375 -5.34375 v -25.945313 c 0 -5.132812 -5.714844 -8.191406 -9.984375 -5.34375 l -15.621094 11.660157 c -0.179687 0.136718 -0.351562 0.285156 -0.519531 0.4375 v -21.359376 c 0 -6.648437 -5.351562 -12 -12 -12 z m 0 0"
           fill="url(#c)"
           id="path46" />
        <path
           d="m 20 32 c -6.648438 0 -12 5.351562 -12 12 v 59.921875 c 0 6.648437 5.351562 12 12 12 h 61.875 c 6.648438 0 12 -5.351563 12 -12 v -26.125 c 0.167969 0.152344 0.339844 0.300781 0.519531 0.4375 l 15.621094 11.660156 c 4.269531 2.847657 9.984375 -0.210937 9.984375 -5.34375 v -25.945312 c 0 -5.132813 -5.714844 -8.191407 -9.984375 -5.34375 l -15.621094 11.660156 c -0.179687 0.136719 -0.351562 0.285156 -0.519531 0.4375 v -21.359375 c 0 -6.648438 -5.351562 -12 -12 -12 z m 0 0"
           fill="url(#e)"
           id="path48" />
        <path
           d="m 32 10 c -2.210938 0 -4 1.789062 -4 4 s 1.789062 4 4 4 c 0.347656 0 0.695312 -0.050781 1.03125 -0.140625 l 18.96875 18.96875 l 18.96875 -18.96875 c 0.335938 0.089844 0.683594 0.140625 1.03125 0.140625 c 2.210938 0 4 -1.789062 4 -4 s -1.789062 -4 -4 -4 s -4 1.789062 -4 4 c 0.003906 0.714844 0.195312 1.414062 0.5625 2.023438 l -16.5625 16.5625 l -16.5625 -16.5625 c 0.367188 -0.609376 0.558594 -1.308594 0.5625 -2.023438 c 0 -2.210938 -1.789062 -4 -4 -4 z m 0 0"
           fill="url(#f)"
           id="path50" />
        <path
           d="m 51.898438 55.589844 c -8.847657 -0.015625 -17.699219 3.007812 -24.871094 9.070312 c -1.3125 1.113282 -1.480469 3.082032 -0.367188 4.394532 c 1.113282 1.316406 3.082032 1.480468 4.394532 0.367187 c 12.042968 -10.183594 29.632812 -10.148437 41.628906 0.085937 c 1.3125 1.117188 3.28125 0.960938 4.398437 -0.347656 c 1.117188 -1.3125 0.960938 -3.277344 -0.351562 -4.394531 c -7.144531 -6.097656 -15.984375 -9.15625 -24.832031 -9.175781 z m -0.078126 15.371094 c -5.898437 0 -11.796874 2.242187 -16.28125 6.722656 c -1.21875 1.21875 -1.21875 3.191406 0 4.410156 s 3.191407 1.21875 4.410157 0 c 6.582031 -6.582031 17.160156 -6.582031 23.742187 0 c 1.21875 1.21875 3.191406 1.21875 4.410156 0 s 1.21875 -3.191406 0 -4.410156 c -4.484374 -4.480469 -10.382812 -6.722656 -16.28125 -6.722656 z m 6.238282 23.003906 c 0 3.445312 -2.792969 6.238281 -6.238282 6.238281 c -3.445312 0 -6.238281 -2.792969 -6.238281 -6.238281 c 0 -3.441406 2.792969 -6.234375 6.238281 -6.234375 c 3.445313 0 6.238282 2.792969 6.238282 6.234375 z m 0 0"
           fill="url(#g)"
           id="path52" />
        <path
           d="m 51.898438 53.570312 c -8.847657 -0.015624 -17.699219 3.007813 -24.871094 9.070313 c -1.3125 1.113281 -1.480469 3.082031 -0.367188 4.394531 c 1.113282 1.316406 3.082032 1.480469 4.394532 0.367188 c 12.042968 -10.183594 29.632812 -10.148438 41.628906 0.085937 c 1.3125 1.117188 3.28125 0.960938 4.398437 -0.347656 c 1.117188 -1.3125 0.960938 -3.277344 -0.351562 -4.394531 c -7.144531 -6.097656 -15.984375 -9.15625 -24.832031 -9.175782 z m -0.078126 15.371094 c -5.898437 0 -11.796874 2.242188 -16.28125 6.722656 c -1.21875 1.21875 -1.21875 3.191407 0 4.410157 s 3.191407 1.21875 4.410157 0 c 6.582031 -6.582031 17.160156 -6.582031 23.742187 0 c 1.21875 1.21875 3.191406 1.21875 4.410156 0 s 1.21875 -3.191407 0 -4.410157 c -4.484374 -4.480468 -10.382812 -6.722656 -16.28125 -6.722656 z m 6.238282 23.003906 c 0 3.445313 -2.792969 6.238282 -6.238282 6.238282 c -3.445312 0 -6.238281 -2.792969 -6.238281 -6.238282 c 0 -3.441406 2.792969 -6.234374 6.238281 -6.234374 c 3.445313 0 6.238282 2.792968 6.238282 6.234374 z m 0 0"
           fill="#ffffff"
           id="path54" />
      </g>
    </g>
  </mask>
  <mask
     id="l">
    <g
       filter="url(#j)"
       id="g63">
      <rect
         fill-opacity="0.8"
         height="128"
         width="128"
         id="rect61" />
    </g>
  </mask>
  <linearGradient
     id="m"
     gradientTransform="matrix(0 0.37 -0.98462 0 295.38501 -30.360001)"
     gradientUnits="userSpaceOnUse"
     x1="300"
     x2="428"
     y1="235"
     y2="235">
    <stop
       offset="0"
       stop-color="#f9f06b"
       id="stop66" />
    <stop
       offset="1"
       stop-color="#f5c211"
       id="stop68" />
  </linearGradient>
  <clipPath
     id="n">
    <rect
       height="128"
       width="128"
       id="rect71" />
  </clipPath>
  <clipPath
     id="o">
    <rect
       height="128"
       width="128"
       id="rect74" />
  </clipPath>
  <path
     d="m 20 35.914062 c -6.648438 0 -12 5.351563 -12 12 v 60.171876 c 0 6.648437 5.351562 12 12 12 h 61.875 c 6.648438 0 12 -5.351563 12 -12 v -26.375 c 0.167969 0.152343 0.339844 0.300781 0.519531 0.4375 l 15.621094 11.660156 c 4.269531 2.847656 9.984375 -0.210938 9.984375 -5.34375 v -25.945313 c 0 -5.132812 -5.714844 -8.191406 -9.984375 -5.34375 l -15.621094 11.660157 c -0.179687 0.136718 -0.351562 0.285156 -0.519531 0.4375 v -21.359376 c 0 -6.648437 -5.351562 -12 -12 -12 z m 0 0"
     fill="url(#b)"
     id="path77" />
  <path
     d="m 20 35.914062 c -6.648438 0 -12 5.351563 -12 12 v 60.171876 c 0 6.648437 5.351562 12 12 12 h 61.875 c 6.648438 0 12 -5.351563 12 -12 v -26.375 c 0.167969 0.152343 0.339844 0.300781 0.519531 0.4375 l 15.621094 11.660156 c 4.269531 2.847656 9.984375 -0.210938 9.984375 -5.34375 v -25.945313 c 0 -5.132812 -5.714844 -8.191406 -9.984375 -5.34375 l -15.621094 11.660157 c -0.179687 0.136718 -0.351562 0.285156 -0.519531 0.4375 v -21.359376 c 0 -6.648437 -5.351562 -12 -12 -12 z m 0 0"
     fill="url(#c)"
     id="path79" />
  <path
     d="m 20 32 c -6.648438 0 -12 5.351562 -12 12 v 59.921875 c 0 6.648437 5.351562 12 12 12 h 61.875 c 6.648438 0 12 -5.351563 12 -12 v -26.125 c 0.167969 0.152344 0.339844 0.300781 0.519531 0.4375 l 15.621094 11.660156 c 4.269531 2.847657 9.984375 -0.210937 9.984375 -5.34375 v -25.945312 c 0 -5.132813 -5.714844 -8.191407 -9.984375 -5.34375 l -15.621094 11.660156 c -0.179687 0.136719 -0.351562 0.285156 -0.519531 0.4375 v -21.359375 c 0 -6.648438 -5.351562 -12 -12 -12 z m 0 0"
     fill="url(#e)"
     id="path81" />
  <path
     d="m 32 10 c -2.210938 0 -4 1.789062 -4 4 s 1.789062 4 4 4 c 0.347656 0 0.695312 -0.050781 1.03125 -0.140625 l 18.96875 18.96875 l 18.96875 -18.96875 c 0.335938 0.089844 0.683594 0.140625 1.03125 0.140625 c 2.210938 0 4 -1.789062 4 -4 s -1.789062 -4 -4 -4 s -4 1.789062 -4 4 c 0.003906 0.714844 0.195312 1.414062 0.5625 2.023438 l -16.5625 16.5625 l -16.5625 -16.5625 c 0.367188 -0.609376 0.558594 -1.308594 0.5625 -2.023438 c 0 -2.210938 -1.789062 -4 -4 -4 z m 0 0"
     fill="url(#f)"
     id="path83" />
  <g
     clip-path="url(#o)"
     mask="url(#k)"
     id="g95">
    <g
       clip-path="url(#n)"
       mask="url(#l)"
       id="g93">
      <path
         d="m 128 80.640625 v 47.359375 h -128 v -47.359375 z m 0 0"
         fill="url(#m)"
         id="path89" />
      <path
         d="m 13.308594 80.640625 l 47.355468 47.359375 h 21.214844 l -47.359375 -47.359375 z m 42.421875 0 l 47.363281 47.359375 h 21.214844 l -47.363282 -47.359375 z m 42.429687 0 l 29.839844 29.839844 v -21.210938 l -8.628906 -8.628906 z m -98.160156 7.90625 v 21.214844 l 18.238281 18.238281 h 21.214844 z m 0 0"
         id="path91" />
    </g>
  </g>
  <path
     d="m 51.898438 55.589844 c -8.847657 -0.015625 -17.699219 3.007812 -24.871094 9.070312 c -1.3125 1.113282 -1.480469 3.082032 -0.367188 4.394532 c 1.113282 1.316406 3.082032 1.480468 4.394532 0.367187 c 12.042968 -10.183594 29.632812 -10.148437 41.628906 0.085937 c 1.3125 1.117188 3.28125 0.960938 4.398437 -0.347656 c 1.117188 -1.3125 0.960938 -3.277344 -0.351562 -4.394531 c -7.144531 -6.097656 -15.984375 -9.15625 -24.832031 -9.175781 z m -0.078126 15.371094 c -5.898437 0 -11.796874 2.242187 -16.28125 6.722656 c -1.21875 1.21875 -1.21875 3.191406 0 4.410156 s 3.191407 1.21875 4.410157 0 c 6.582031 -6.582031 17.160156 -6.582031 23.742187 0 c 1.21875 1.21875 3.191406 1.21875 4.410156 0 s 1.21875 -3.191406 0 -4.410156 c -4.484374 -4.480469 -10.382812 -6.722656 -16.28125 -6.722656 z m 6.238282 23.003906 c 0 3.445312 -2.792969 6.238281 -6.238282 6.238281 c -3.445312 0 -6.238281 -2.792969 -6.238281 -6.238281 c 0 -3.441406 2.792969 -6.234375 6.238281 -6.234375 c 3.445313 0 6.238282 2.792969 6.238282 6.234375 z m 0 0"
     fill="url(#g)"
     id="path85" />
  <path
     d="m 51.898438 53.570312 c -8.847657 -0.015624 -17.699219 3.007813 -24.871094 9.070313 c -1.3125 1.113281 -1.480469 3.082031 -0.367188 4.394531 c 1.113282 1.316406 3.082032 1.480469 4.394532 0.367188 c 12.042968 -10.183594 29.632812 -10.148438 41.628906 0.085937 c 1.3125 1.117188 3.28125 0.960938 4.398437 -0.347656 c 1.117188 -1.3125 0.960938 -3.277344 -0.351562 -4.394531 c -7.144531 -6.097656 -15.984375 -9.15625 -24.832031 -9.175782 z m -0.078126 15.371094 c -5.898437 0 -11.796874 2.242188 -16.28125 6.722656 c -1.21875 1.21875 -1.21875 3.191407 0 4.410157 s 3.191407 1.21875 4.410157 0 c 6.582031 -6.582031 17.160156 -6.582031 23.742187 0 c 1.21875 1.21875 3.191406 1.21875 4.410156 0 s 1.21875 -3.191407 0 -4.410157 c -4.484374 -4.480468 -10.382812 -6.722656 -16.28125 -6.722656 z m 6.238282 23.003906 c 0 3.445313 -2.792969 6.238282 -6.238282 6.238282 c -3.445312 0 -6.238281 -2.792969 -6.238281 -6.238282 c 0 -3.441406 2.792969 -6.234374 6.238281 -6.234374 c 3.445313 0 6.238282 2.792968 6.238282 6.234374 z m 0 0"
     fill="#ffffff"
     id="path87" />
</svg>
