<?xml version="1.0" encoding="UTF-8" standalone="no"?>
<svg
   height="128px"
   viewBox="0 0 128 128"
   width="128px"
   version="1.1"
   id="svg253"
   sodipodi:docname="com.feaneron.Boatswain.Devel.svg"
   inkscape:version="1.1.2 (0a00cf5339, 2022-02-04)"
   xmlns:inkscape="http://www.inkscape.org/namespaces/inkscape"
   xmlns:sodipodi="http://sodipodi.sourceforge.net/DTD/sodipodi-0.dtd"
   xmlns:xlink="http://www.w3.org/1999/xlink"
   xmlns="http://www.w3.org/2000/svg"
   xmlns:svg="http://www.w3.org/2000/svg">
  <sodipodi:namedview
     id="namedview255"
     pagecolor="#505050"
     bordercolor="#ffffff"
     borderopacity="1"
     inkscape:pageshadow="0"
     inkscape:pageopacity="0"
     inkscape:pagecheckerboard="1"
     showgrid="false"
     inkscape:current-layer="svg253" />
  <defs
     id="defs181">
    <linearGradient
       id="a"
       gradientTransform="matrix(0.928571 0 0 1 4.571429 -172)"
       gradientUnits="userSpaceOnUse"
       x1="7.842921"
       x2="119.956627"
       y1="284.301208"
       y2="284.301208">
      <stop
         offset="0"
         stop-color="#4b4b4b"
         id="stop2" />
      <stop
         offset="0.0620315"
         stop-color="#818182"
         id="stop4" />
      <stop
         offset="0.174673"
         stop-color="#3d3846"
         id="stop6" />
      <stop
         offset="0.830765"
         stop-color="#3d3846"
         id="stop8" />
      <stop
         offset="0.929443"
         stop-color="#5b5b5b"
         id="stop10" />
      <stop
         offset="1"
         stop-color="#241f31"
         id="stop12" />
    </linearGradient>
    <linearGradient
       id="b"
       gradientUnits="userSpaceOnUse"
       x1="8"
       x2="120"
       y1="112"
       y2="112">
      <stop
         offset="0"
         stop-color="#9a9996"
         id="stop15" />
      <stop
         offset="0.0730242"
         stop-color="#241f31"
         id="stop17" />
      <stop
         offset="0.919774"
         stop-color="#241f31"
         id="stop19" />
      <stop
         offset="1"
         stop-color="#9a9996"
         id="stop21" />
    </linearGradient>
    <linearGradient
       id="c"
       gradientUnits="userSpaceOnUse">
      <stop
         offset="0"
         stop-color="#1c71d8"
         id="stop24" />
      <stop
         offset="0.0751897"
         stop-color="#6da7ec"
         id="stop26" />
      <stop
         offset="0.178879"
         stop-color="#1963be"
         id="stop28" />
      <stop
         offset="0.863696"
         stop-color="#1c71d8"
         id="stop30" />
      <stop
         offset="0.940996"
         stop-color="#71a9ed"
         id="stop32" />
      <stop
         offset="1"
         stop-color="#1b6acb"
         id="stop34" />
    </linearGradient>
    <linearGradient
       id="d"
       x1="15.90918"
       x2="43.904785"
       xlink:href="#c"
       y1="68.699707"
       y2="68.699707" />
    <linearGradient
       id="e"
       x1="50.447365"
       x2="77.552635"
       xlink:href="#c"
       y1="67.715347"
       y2="67.715347" />
    <linearGradient
       id="f"
       x1="83.033203"
       x2="111.823242"
       xlink:href="#c"
       y1="68.834961"
       y2="68.834961" />
    <linearGradient
       id="g"
       gradientUnits="userSpaceOnUse">
      <stop
         offset="0"
         stop-color="#443a5c"
         id="stop40" />
      <stop
         offset="0.0620315"
         stop-color="#7d6fa3"
         id="stop42" />
      <stop
         offset="0.174673"
         stop-color="#241f31"
         id="stop44" />
      <stop
         offset="0.830765"
         stop-color="#241f31"
         id="stop46" />
      <stop
         offset="0.929443"
         stop-color="#51476f"
         id="stop48" />
      <stop
         offset="1"
         stop-color="#241f31"
         id="stop50" />
    </linearGradient>
    <linearGradient
       id="h"
       x1="16.397379"
       x2="43.602623"
       xlink:href="#g"
       y1="101.613037"
       y2="101.613037" />
    <linearGradient
       id="i"
       x1="50.240303"
       x2="77.759705"
       xlink:href="#g"
       y1="101.231934"
       y2="101.231934" />
    <linearGradient
       id="j"
       x1="84.480309"
       x2="111.561043"
       xlink:href="#c"
       y1="101.779144"
       y2="101.779144" />
    <filter
       id="k"
       height="1"
       width="1"
       x="0"
       y="0">
      <feColorMatrix
         in="SourceGraphic"
         type="matrix"
         values="0 0 0 0 1 0 0 0 0 1 0 0 0 0 1 0 0 0 1 0"
         id="feColorMatrix56" />
    </filter>
    <mask
       id="l">
      <g
         filter="url(#k)"
         id="g61">
        <rect
           fill-opacity="0.17159"
           height="128"
           width="128"
           id="rect59" />
      </g>
    </mask>
    <mask
       id="m">
      <g
         filter="url(#k)"
         id="g66">
        <rect
           fill-opacity="0.17159"
           height="128"
           width="128"
           id="rect64" />
      </g>
    </mask>
    <linearGradient
       id="n"
       gradientUnits="userSpaceOnUse"
       x1="37.999704"
       x2="113.389648"
       y1="61.986099"
       y2="113.646484">
      <stop
         offset="0"
         stop-color="#ffffff"
         stop-opacity="0"
         id="stop69" />
      <stop
         offset="0.160638"
         stop-color="#ffffff"
         stop-opacity="0.839216"
         id="stop71" />
      <stop
         offset="0.34608"
         stop-color="#ffffff"
         stop-opacity="0.109804"
         id="stop73" />
      <stop
         offset="0.441021"
         stop-color="#ffffff"
         id="stop75" />
      <stop
         offset="0.537248"
         stop-color="#ffffff"
         stop-opacity="0"
         id="stop77" />
      <stop
         offset="0.811507"
         stop-color="#ffffff"
         stop-opacity="0.184314"
         id="stop79" />
      <stop
         offset="0.878892"
         stop-color="#ffffff"
         id="stop81" />
      <stop
         offset="0.953738"
         stop-color="#ffffff"
         stop-opacity="0.043137"
         id="stop83" />
      <stop
         offset="1"
         stop-color="#ffffff"
         stop-opacity="0"
         id="stop85" />
    </linearGradient>
    <clipPath
       id="o">
      <rect
         height="152"
         width="192"
         id="rect88" />
    </clipPath>
    <g
       id="p"
       clip-path="url(#o)">
      <path
         d="m 28.171875 92 h 19.65625 c 2.3125 0 4.171875 1.859375 4.171875 4.171875 v 15.65625 c 0 2.3125 -1.859375 4.171875 -4.171875 4.171875 h -19.65625 c -2.3125 0 -4.171875 -1.859375 -4.171875 -4.171875 v -15.65625 c 0 -2.3125 1.859375 -4.171875 4.171875 -4.171875 z m 34 0 h 19.65625 c 2.3125 0 4.171875 1.859375 4.171875 4.171875 v 15.65625 c 0 2.3125 -1.859375 4.171875 -4.171875 4.171875 h -19.65625 c -2.3125 0 -4.171875 -1.859375 -4.171875 -4.171875 v -15.65625 c 0 -2.3125 1.859375 -4.171875 4.171875 -4.171875 z m 34 0 h 19.65625 c 2.3125 0 4.171875 1.859375 4.171875 4.171875 v 15.65625 c 0 2.3125 -1.859375 4.171875 -4.171875 4.171875 h -19.65625 c -2.3125 0 -4.171875 -1.859375 -4.171875 -4.171875 v -15.65625 c 0 -2.3125 1.859375 -4.171875 4.171875 -4.171875 z m 0 -34 h 19.65625 c 2.3125 0 4.171875 1.859375 4.171875 4.171875 v 15.65625 c 0 2.3125 -1.859375 4.171875 -4.171875 4.171875 h -19.65625 c -2.3125 0 -4.171875 -1.859375 -4.171875 -4.171875 v -15.65625 c 0 -2.3125 1.859375 -4.171875 4.171875 -4.171875 z m -34 0 h 19.65625 c 2.3125 0 4.171875 1.859375 4.171875 4.171875 v 15.65625 c 0 2.3125 -1.859375 4.171875 -4.171875 4.171875 h -19.65625 c -2.3125 0 -4.171875 -1.859375 -4.171875 -4.171875 v -15.65625 c 0 -2.3125 1.859375 -4.171875 4.171875 -4.171875 z m -34 0 h 19.65625 c 2.3125 0 4.171875 1.859375 4.171875 4.171875 v 15.65625 c 0 2.3125 -1.859375 4.171875 -4.171875 4.171875 h -19.65625 c -2.3125 0 -4.171875 -1.859375 -4.171875 -4.171875 v -15.65625 c 0 -2.3125 1.859375 -4.171875 4.171875 -4.171875 z m 0 0"
         fill="url(#n)"
         id="path91" />
    </g>
    <clipPath
       id="q">
      <rect
         height="128"
         width="128"
         id="rect94" />
    </clipPath>
    <clipPath
       id="r">
      <rect
         height="128"
         width="128"
         id="rect97" />
    </clipPath>
    <mask
       id="s">
      <g
         clip-path="url(#r)"
         filter="url(#k)"
         id="g162">
        <g
           clip-path="url(#q)"
           id="g160">
          <path
             d="m 22 28 h 84 c 5.523438 0 10 4.476562 10 10 v 68 c 0 5.523438 -4.476562 10 -10 10 h -84 c -5.523438 0 -10 -4.476562 -10 -10 v -68 c 0 -5.523438 4.476562 -10 10 -10 z m 0 0"
             fill="url(#a)"
             id="path100" />
          <path
             d="m 18 32 h 92 c 5.523438 0 10 4.476562 10 10 v 62 c 0 5.523438 -4.476562 10 -10 10 h -92 c -5.523438 0 -10 -4.476562 -10 -10 v -62 c 0 -5.523438 4.476562 -10 10 -10 z m 0 0"
             fill="url(#b)"
             id="path102" />
          <path
             d="m 18 28 h 92 c 5.523438 0 10 4.476562 10 10 v 62 c 0 5.523438 -4.476562 10 -10 10 h -92 c -5.523438 0 -10 -4.476562 -10 -10 v -62 c 0 -5.523438 4.476562 -10 10 -10 z m 0 0"
             fill="#5e5c64"
             id="path104" />
          <path
             d="m 88.171875 42.5 h 19.65625 c 2.3125 0 4.171875 1.859375 4.171875 4.171875 v 19.65625 c 0 2.3125 -1.859375 4.171875 -4.171875 4.171875 h -19.65625 c -2.3125 0 -4.171875 -1.859375 -4.171875 -4.171875 v -19.65625 c 0 -2.3125 1.859375 -4.171875 4.171875 -4.171875 z m -34 0 h 19.65625 c 2.3125 0 4.171875 1.859375 4.171875 4.171875 v 19.65625 c 0 2.3125 -1.859375 4.171875 -4.171875 4.171875 h -19.65625 c -2.3125 0 -4.171875 -1.859375 -4.171875 -4.171875 v -19.65625 c 0 -2.3125 1.859375 -4.171875 4.171875 -4.171875 z m -34 0 h 19.65625 c 2.3125 0 4.171875 1.859375 4.171875 4.171875 v 19.65625 c 0 2.3125 -1.859375 4.171875 -4.171875 4.171875 h -19.65625 c -2.3125 0 -4.171875 -1.859375 -4.171875 -4.171875 v -19.65625 c 0 -2.3125 1.859375 -4.171875 4.171875 -4.171875 z m 68 34 h 19.65625 c 2.3125 0 4.171875 1.859375 4.171875 4.171875 v 19.65625 c 0 2.3125 -1.859375 4.171875 -4.171875 4.171875 h -19.65625 c -2.3125 0 -4.171875 -1.859375 -4.171875 -4.171875 v -19.65625 c 0 -2.3125 1.859375 -4.171875 4.171875 -4.171875 z m -34 0 h 19.65625 c 2.3125 0 4.171875 1.859375 4.171875 4.171875 v 19.65625 c 0 2.3125 -1.859375 4.171875 -4.171875 4.171875 h -19.65625 c -2.3125 0 -4.171875 -1.859375 -4.171875 -4.171875 v -19.65625 c 0 -2.3125 1.859375 -4.171875 4.171875 -4.171875 z m -34 0 h 19.65625 c 2.3125 0 4.171875 1.859375 4.171875 4.171875 v 19.65625 c 0 2.3125 -1.859375 4.171875 -4.171875 4.171875 h -19.65625 c -2.3125 0 -4.171875 -1.859375 -4.171875 -4.171875 v -19.65625 c 0 -2.3125 1.859375 -4.171875 4.171875 -4.171875 z m 0 0"
             id="path106" />
          <path
             d="m 20.171875 42 h 19.65625 c 2.304687 0 4.171875 1.867188 4.171875 4.171875 v 19.65625 c 0 2.304687 -1.867188 4.171875 -4.171875 4.171875 h -19.65625 c -2.304687 0 -4.171875 -1.867188 -4.171875 -4.171875 v -19.65625 c 0 -2.304687 1.867188 -4.171875 4.171875 -4.171875 z m 0 0"
             fill="url(#d)"
             id="path108" />
          <path
             d="m 54.171875 42 h 19.65625 c 2.304687 0 4.171875 1.867188 4.171875 4.171875 v 19.65625 c 0 2.304687 -1.867188 4.171875 -4.171875 4.171875 h -19.65625 c -2.304687 0 -4.171875 -1.867188 -4.171875 -4.171875 v -19.65625 c 0 -2.304687 1.867188 -4.171875 4.171875 -4.171875 z m 0 0"
             fill="url(#e)"
             id="path110" />
          <path
             d="m 88.171875 42 h 19.65625 c 2.304687 0 4.171875 1.867188 4.171875 4.171875 v 19.65625 c 0 2.304687 -1.867188 4.171875 -4.171875 4.171875 h -19.65625 c -2.304687 0 -4.171875 -1.867188 -4.171875 -4.171875 v -19.65625 c 0 -2.304687 1.867188 -4.171875 4.171875 -4.171875 z m 0 0"
             fill="url(#f)"
             id="path112" />
          <path
             d="m 20.171875 76 h 19.65625 c 2.304687 0 4.171875 1.867188 4.171875 4.171875 v 19.65625 c 0 2.304687 -1.867188 4.171875 -4.171875 4.171875 h -19.65625 c -2.304687 0 -4.171875 -1.867188 -4.171875 -4.171875 v -19.65625 c 0 -2.304687 1.867188 -4.171875 4.171875 -4.171875 z m 0 0"
             fill="url(#h)"
             id="path114" />
          <path
             d="m 54.171875 76 h 19.65625 c 2.304687 0 4.171875 1.867188 4.171875 4.171875 v 19.65625 c 0 2.304687 -1.867188 4.171875 -4.171875 4.171875 h -19.65625 c -2.304687 0 -4.171875 -1.867188 -4.171875 -4.171875 v -19.65625 c 0 -2.304687 1.867188 -4.171875 4.171875 -4.171875 z m 0 0"
             fill="url(#i)"
             id="path116" />
          <path
             d="m 88.171875 76 h 19.65625 c 2.304687 0 4.171875 1.867188 4.171875 4.171875 v 19.65625 c 0 2.304687 -1.867188 4.171875 -4.171875 4.171875 h -19.65625 c -2.304687 0 -4.171875 -1.867188 -4.171875 -4.171875 v -19.65625 c 0 -2.304687 1.867188 -4.171875 4.171875 -4.171875 z m 0 0"
             fill="url(#j)"
             id="path118" />
          <path
             d="m 56.640625 209 c 0 1.105469 -0.894531 2 -2 2 s -2 -0.894531 -2 -2 s 0.894531 -2 2 -2 s 2 0.894531 2 2 z m 0 0"
             fill="none"
             stroke="#9a9996"
             stroke-linecap="round"
             stroke-width="2"
             transform="matrix(1 0 0 1 0 -172)"
             id="path120" />
          <path
             d="m 60 36 h 16 v 4 h -16 z m 0 0"
             fill="#9a9996"
             id="path122" />
          <path
             d="m 20.171875 42 h 19.65625 c 2.304687 0 4.171875 1.867188 4.171875 4.171875 v 15.65625 c 0 2.304687 -1.867188 4.171875 -4.171875 4.171875 h -19.65625 c -2.304687 0 -4.171875 -1.867188 -4.171875 -4.171875 v -15.65625 c 0 -2.304687 1.867188 -4.171875 4.171875 -4.171875 z m 0 0"
             fill="#62a0ea"
             id="path124" />
          <path
             d="m 35.5 47.976562 c 1.382812 0 2.503906 1.117188 2.5 2.5 v 6 c 0 1.382813 -1.113281 2.5 -2.5 2.5 h -6.375 l -3.125 3 v -3 h -1.5 c -1.5 0 -2.5 -1.316406 -2.5 -2.5 v -6 c 0 -1.386718 1.113281 -2.5 2.5 -2.5 z m 0 0"
             fill="#ffffff"
             id="path126" />
          <path
             d="m 54.171875 42 h 19.65625 c 2.304687 0 4.171875 1.867188 4.171875 4.171875 v 15.65625 c 0 2.304687 -1.867188 4.171875 -4.171875 4.171875 h -19.65625 c -2.304687 0 -4.171875 -1.867188 -4.171875 -4.171875 v -15.65625 c 0 -2.304687 1.867188 -4.171875 4.171875 -4.171875 z m 0 0"
             fill="#62a0ea"
             id="path128" />
          <path
             d="m 60.039062 46.988281 c -1.074218 0 -1.953124 0.878907 -1.953124 1.953125 v 10.078125 c 0 1.074219 0.878906 1.953125 1.953124 1.953125 c 1.074219 0 1.953126 -0.878906 1.953126 -1.953125 v -10.078125 c 0 -1.074218 -0.878907 -1.953125 -1.953126 -1.953125 z m 0 1 c 0.539063 0 0.953126 0.417969 0.953126 0.953125 v 10.078125 c 0 0.535157 -0.414063 0.953125 -0.953126 0.953125 c -0.535156 0 -0.953124 -0.417968 -0.953124 -0.953125 v -10.078125 c 0 -0.535156 0.417968 -0.953125 0.953124 -0.953125 z m 0 0"
             fill="#ffffff"
             id="path130" />
          <path
             d="m 64.078125 51.042969 c 0 2.230469 -1.804687 4.035156 -4.035156 4.035156 c -2.226563 0 -4.035157 -1.804687 -4.035157 -4.035156 c 0 -2.226563 1.808594 -4.035157 4.035157 -4.035157 c 2.230469 0 4.035156 1.808594 4.035156 4.035157 z m 0 0"
             fill="#ffffff"
             id="path132" />
          <path
             d="m 68.027344 46.988281 c -1.074219 0 -1.953125 0.878907 -1.953125 1.953125 v 10.078125 c 0 1.074219 0.878906 1.953125 1.953125 1.953125 c 1.074218 0 1.953125 -0.878906 1.953125 -1.953125 v -10.078125 c 0 -1.074218 -0.878907 -1.953125 -1.953125 -1.953125 z m 0 1 c 0.539062 0 0.953125 0.417969 0.953125 0.953125 v 10.078125 c 0 0.535157 -0.414063 0.953125 -0.953125 0.953125 c -0.535156 0 -0.953125 -0.417968 -0.953125 -0.953125 v -10.078125 c 0 -0.535156 0.417969 -0.953125 0.953125 -0.953125 z m 0 0"
             fill="#ffffff"
             id="path134" />
          <path
             d="m 72.042969 54.042969 c 0 2.230469 -1.8125 4.039062 -4.042969 4.039062 s -4.042969 -1.808593 -4.042969 -4.039062 c 0 -2.234375 1.8125 -4.042969 4.042969 -4.042969 s 4.042969 1.808594 4.042969 4.042969 z m 0 0"
             fill="#ffffff"
             id="path136" />
          <path
             d="m 88.171875 42 h 19.65625 c 2.304687 0 4.171875 1.867188 4.171875 4.171875 v 15.65625 c 0 2.304687 -1.867188 4.171875 -4.171875 4.171875 h -19.65625 c -2.304687 0 -4.171875 -1.867188 -4.171875 -4.171875 v -15.65625 c 0 -2.304687 1.867188 -4.171875 4.171875 -4.171875 z m 0 0"
             fill="#62a0ea"
             id="path138" />
          <path
             d="m 88.171875 76 h 19.65625 c 2.304687 0 4.171875 1.867188 4.171875 4.171875 v 15.65625 c 0 2.304687 -1.867188 4.171875 -4.171875 4.171875 h -19.65625 c -2.304687 0 -4.171875 -1.867188 -4.171875 -4.171875 v -15.65625 c 0 -2.304687 1.867188 -4.171875 4.171875 -4.171875 z m 0 0"
             fill="#62a0ea"
             id="path140" />
          <path
             d="m 54.171875 76 h 19.65625 c 2.304687 0 4.171875 1.867188 4.171875 4.171875 v 15.65625 c 0 2.304687 -1.867188 4.171875 -4.171875 4.171875 h -19.65625 c -2.304687 0 -4.171875 -1.867188 -4.171875 -4.171875 v -15.65625 c 0 -2.304687 1.867188 -4.171875 4.171875 -4.171875 z m 0 0"
             fill="#3d3846"
             id="path142" />
          <path
             d="m 20.171875 76 h 19.65625 c 2.304687 0 4.171875 1.867188 4.171875 4.171875 v 15.65625 c 0 2.304687 -1.867188 4.171875 -4.171875 4.171875 h -19.65625 c -2.304687 0 -4.171875 -1.867188 -4.171875 -4.171875 v -15.65625 c 0 -2.304687 1.867188 -4.171875 4.171875 -4.171875 z m 0 0"
             fill="#3d3846"
             id="path144" />
          <path
             d="m 26.273438 82.726562 l -1.546876 1.546876 c -0.464843 0.464843 -0.726562 1.09375 -0.726562 1.753906 v 6.945312 c 0 0.566406 0.460938 1.027344 1.027344 1.027344 h 1.972656 v 3 l 3 -3 h 1.972656 c 0.660156 0 1.289063 -0.261719 1.753906 -0.726562 l 2.546876 -2.546876 c 0.464843 -0.464843 0.726562 -1.09375 0.726562 -1.753906 l -0.011719 -5.972656 c 0 -0.566406 -0.460937 -1.023438 -1.027343 -1.023438 l -7.933594 0.019532 c -0.660156 0.003906 -1.289063 0.265625 -1.753906 0.730468 z m 1.726562 1.273438 h 6 c 0.550781 0 1 0.449219 1 1 v 3 c 0 0.640625 -0.253906 1.253906 -0.707031 1.707031 l -0.585938 0.585938 c -0.453125 0.453125 -1.066406 0.707031 -1.707031 0.707031 h -1 l -1 1 v -1 h -2 c -0.550781 0 -1 -0.449219 -1 -1 v -5 c 0 -0.550781 0.449219 -1 1 -1 z m 1 2 v 3 h 1 v -3 z m 3 0 v 3 h 1 v -3 z m 0 0"
             fill="#ffffff"
             id="path146" />
          <path
             d="m 59.390625 82.109375 c -1.101563 0.097656 -1.875 0.898437 -2 2 c -0.257813 2.316406 -0.289063 5.207031 0 7.617187 c 0.132813 1.097657 0.902344 1.871094 2 2 c 3.375 0.394532 6.070313 0.335938 10 0 c 1.105469 -0.097656 1.914063 -0.898437 2 -2 c 0.167969 -2.160156 0.207031 -5.609374 0 -7.617187 c -0.113281 -1.101563 -0.894531 -1.890625 -2 -2 c -3.425781 -0.316406 -6.832031 -0.277344 -10 0 z m 3.03125 3.726563 l 4.941406 2.097656 l -4.941406 2.050781 z m 0 0"
             fill="#ffffff"
             id="path148" />
          <path
             d="m 100.164062 48.875 c -1.5625 0.003906 -2.980468 0.914062 -3.632812 2.335938 c -0.421875 -0.21875 -0.894531 -0.332032 -1.367188 -0.335938 c -0.308593 0.007812 -0.617187 0.0625 -0.90625 0.164062 l 8.839844 8.835938 h 0.066406 c 1.65625 0 2.996094 -1.339844 3 -3 c -0.003906 -1.332031 -0.882812 -2.503906 -2.164062 -2.875 c 0.105469 -0.363281 0.160156 -0.742188 0.164062 -1.125 c -0.003906 -2.207031 -1.792968 -3.996094 -4 -4 z m -7.203124 2.988281 c -0.507813 0.546875 -0.792969 1.265625 -0.800782 2.011719 c 0.003906 0.351562 0.0625 0.699219 0.183594 1.027344 c -1.246094 0.15625 -2.179688 1.21875 -2.179688 2.472656 c 0 1.382812 1.117188 2.5 2.5 2.5 h 8.3125 z m 0 0"
             fill="#ffffff"
             id="path150" />
          <path
             d="m 91.683594 46.339844 l -1.0625 1.058594 l 14 14 l 1.0625 -1.0625 z m 0 0"
             fill="#ffffff"
             id="path152" />
          <path
             d="m 98.042969 81.46875 c -2.617188 0 -5.234375 0.933594 -7.191407 2.804688 l -0.5 0.480468 c -0.398437 0.382813 -0.410156 1.015625 -0.03125 1.414063 c 0.382813 0.398437 1.015626 0.410156 1.414063 0.027343 l 0.5 -0.476562 c 3.089844 -2.953125 8.53125 -2.953125 11.617187 0 l 0.5 0.476562 c 0.398438 0.382813 1.03125 0.371094 1.414063 -0.027343 c 0.382813 -0.398438 0.367187 -1.03125 -0.03125 -1.414063 l -0.496094 -0.480468 c -1.957031 -1.871094 -4.574219 -2.804688 -7.195312 -2.804688 z m -0.03125 4.007812 c -1.570313 0.011719 -3.125 0.628907 -4.207031 1.8125 l -0.5 0.546876 c -0.375 0.410156 -0.34375 1.046874 0.066406 1.417968 s 1.042968 0.339844 1.414062 -0.070312 l 0.496094 -0.546875 c 1.277344 -1.402344 4.160156 -1.496094 5.523438 0 l 0.5 0.546875 c 0.371093 0.410156 1.003906 0.441406 1.414062 0.070312 c 0.40625 -0.375 0.4375 -1.007812 0.0625 -1.414062 l -0.5 -0.550782 c -1.121094 -1.230468 -2.703125 -1.824218 -4.269531 -1.8125 z m 0 0"
             fill="#ffffff"
             id="path154" />
          <path
             d="m 96 90.160156 v 3.679688 c 0 0.242187 0.121094 0.464844 0.324219 0.59375 s 0.460937 0.144531 0.679687 0.042968 l 3.511719 -1.640624 c 0.332031 -0.15625 0.542969 -0.492188 0.542969 -0.859376 c -0.003906 -0.367187 -0.21875 -0.699218 -0.550782 -0.851562 l -3.503906 -1.609375 c -0.21875 -0.101563 -0.472656 -0.082031 -0.675781 0.046875 c -0.207031 0.128906 -0.328125 0.355469 -0.328125 0.597656 z m 0 0"
             fill="#ffffff"
             id="path156" />
          <use
             mask="url(#m)"
             transform="matrix(1 0 0 1 -8 -16)"
             xlink:href="#p"
             id="use158" />
        </g>
      </g>
    </mask>
    <mask
       id="t">
      <g
         filter="url(#k)"
         id="g167">
        <rect
           fill-opacity="0.8"
           height="128"
           width="128"
           id="rect165" />
      </g>
    </mask>
    <linearGradient
       id="u"
       gradientTransform="matrix(0 0.37 -0.98462 0 295.38501 -30.360001)"
       gradientUnits="userSpaceOnUse"
       x1="300"
       x2="428"
       y1="235"
       y2="235">
      <stop
         offset="0"
         stop-color="#f9f06b"
         id="stop170" />
      <stop
         offset="1"
         stop-color="#f5c211"
         id="stop172" />
    </linearGradient>
    <clipPath
       id="v">
      <rect
         height="128"
         width="128"
         id="rect175" />
    </clipPath>
    <clipPath
       id="w">
      <rect
         height="128"
         width="128"
         id="rect178" />
    </clipPath>
  </defs>
  <path
     d="m 22 28 h 84 c 5.523438 0 10 4.476562 10 10 v 68 c 0 5.523438 -4.476562 10 -10 10 h -84 c -5.523438 0 -10 -4.476562 -10 -10 v -68 c 0 -5.523438 4.476562 -10 10 -10 z m 0 0"
     fill="url(#a)"
     id="path183" />
  <path
     d="m 18 32 h 92 c 5.523438 0 10 4.476562 10 10 v 62 c 0 5.523438 -4.476562 10 -10 10 h -92 c -5.523438 0 -10 -4.476562 -10 -10 v -62 c 0 -5.523438 4.476562 -10 10 -10 z m 0 0"
     fill="url(#b)"
     id="path185" />
  <path
     d="m 18 28 h 92 c 5.523438 0 10 4.476562 10 10 v 62 c 0 5.523438 -4.476562 10 -10 10 h -92 c -5.523438 0 -10 -4.476562 -10 -10 v -62 c 0 -5.523438 4.476562 -10 10 -10 z m 0 0"
     fill="#5e5c64"
     id="path187" />
  <path
     d="m 88.171875 42.5 h 19.65625 c 2.3125 0 4.171875 1.859375 4.171875 4.171875 v 19.65625 c 0 2.3125 -1.859375 4.171875 -4.171875 4.171875 h -19.65625 c -2.3125 0 -4.171875 -1.859375 -4.171875 -4.171875 v -19.65625 c 0 -2.3125 1.859375 -4.171875 4.171875 -4.171875 z m -34 0 h 19.65625 c 2.3125 0 4.171875 1.859375 4.171875 4.171875 v 19.65625 c 0 2.3125 -1.859375 4.171875 -4.171875 4.171875 h -19.65625 c -2.3125 0 -4.171875 -1.859375 -4.171875 -4.171875 v -19.65625 c 0 -2.3125 1.859375 -4.171875 4.171875 -4.171875 z m -34 0 h 19.65625 c 2.3125 0 4.171875 1.859375 4.171875 4.171875 v 19.65625 c 0 2.3125 -1.859375 4.171875 -4.171875 4.171875 h -19.65625 c -2.3125 0 -4.171875 -1.859375 -4.171875 -4.171875 v -19.65625 c 0 -2.3125 1.859375 -4.171875 4.171875 -4.171875 z m 68 34 h 19.65625 c 2.3125 0 4.171875 1.859375 4.171875 4.171875 v 19.65625 c 0 2.3125 -1.859375 4.171875 -4.171875 4.171875 h -19.65625 c -2.3125 0 -4.171875 -1.859375 -4.171875 -4.171875 v -19.65625 c 0 -2.3125 1.859375 -4.171875 4.171875 -4.171875 z m -34 0 h 19.65625 c 2.3125 0 4.171875 1.859375 4.171875 4.171875 v 19.65625 c 0 2.3125 -1.859375 4.171875 -4.171875 4.171875 h -19.65625 c -2.3125 0 -4.171875 -1.859375 -4.171875 -4.171875 v -19.65625 c 0 -2.3125 1.859375 -4.171875 4.171875 -4.171875 z m -34 0 h 19.65625 c 2.3125 0 4.171875 1.859375 4.171875 4.171875 v 19.65625 c 0 2.3125 -1.859375 4.171875 -4.171875 4.171875 h -19.65625 c -2.3125 0 -4.171875 -1.859375 -4.171875 -4.171875 v -19.65625 c 0 -2.3125 1.859375 -4.171875 4.171875 -4.171875 z m 0 0"
     id="path189" />
  <path
     d="m 20.171875 42 h 19.65625 c 2.304687 0 4.171875 1.867188 4.171875 4.171875 v 19.65625 c 0 2.304687 -1.867188 4.171875 -4.171875 4.171875 h -19.65625 c -2.304687 0 -4.171875 -1.867188 -4.171875 -4.171875 v -19.65625 c 0 -2.304687 1.867188 -4.171875 4.171875 -4.171875 z m 0 0"
     fill="url(#d)"
     id="path191" />
  <path
     d="m 54.171875 42 h 19.65625 c 2.304687 0 4.171875 1.867188 4.171875 4.171875 v 19.65625 c 0 2.304687 -1.867188 4.171875 -4.171875 4.171875 h -19.65625 c -2.304687 0 -4.171875 -1.867188 -4.171875 -4.171875 v -19.65625 c 0 -2.304687 1.867188 -4.171875 4.171875 -4.171875 z m 0 0"
     fill="url(#e)"
     id="path193" />
  <path
     d="m 88.171875 42 h 19.65625 c 2.304687 0 4.171875 1.867188 4.171875 4.171875 v 19.65625 c 0 2.304687 -1.867188 4.171875 -4.171875 4.171875 h -19.65625 c -2.304687 0 -4.171875 -1.867188 -4.171875 -4.171875 v -19.65625 c 0 -2.304687 1.867188 -4.171875 4.171875 -4.171875 z m 0 0"
     fill="url(#f)"
     id="path195" />
  <path
     d="m 56.640625 37 c 0 1.105469 -0.894531 2 -2 2 s -2 -0.894531 -2 -2 s 0.894531 -2 2 -2 s 2 0.894531 2 2 z m 0 0"
     fill="none"
     stroke="#9a9996"
     stroke-linecap="round"
     stroke-width="2"
     id="path203" />
  <path
     d="m 60 36 h 16 v 4 h -16 z m 0 0"
     fill="#9a9996"
     id="path205" />
  <path
     d="m 20.171875 42 h 19.65625 c 2.304687 0 4.171875 1.867188 4.171875 4.171875 v 15.65625 c 0 2.304687 -1.867188 4.171875 -4.171875 4.171875 h -19.65625 c -2.304687 0 -4.171875 -1.867188 -4.171875 -4.171875 v -15.65625 c 0 -2.304687 1.867188 -4.171875 4.171875 -4.171875 z m 0 0"
     fill="#62a0ea"
     id="path207" />
  <path
     d="m 35.5 47.976562 c 1.382812 0 2.503906 1.117188 2.5 2.5 v 6 c 0 1.382813 -1.113281 2.5 -2.5 2.5 h -6.375 l -3.125 3 v -3 h -1.5 c -1.5 0 -2.5 -1.316406 -2.5 -2.5 v -6 c 0 -1.386718 1.113281 -2.5 2.5 -2.5 z m 0 0"
     fill="#ffffff"
     id="path209" />
  <path
     d="m 54.171875 42 h 19.65625 c 2.304687 0 4.171875 1.867188 4.171875 4.171875 v 15.65625 c 0 2.304687 -1.867188 4.171875 -4.171875 4.171875 h -19.65625 c -2.304687 0 -4.171875 -1.867188 -4.171875 -4.171875 v -15.65625 c 0 -2.304687 1.867188 -4.171875 4.171875 -4.171875 z m 0 0"
     fill="#62a0ea"
     id="path211" />
  <path
     d="m 60.039062 46.988281 c -1.074218 0 -1.953124 0.878907 -1.953124 1.953125 v 10.078125 c 0 1.074219 0.878906 1.953125 1.953124 1.953125 c 1.074219 0 1.953126 -0.878906 1.953126 -1.953125 v -10.078125 c 0 -1.074218 -0.878907 -1.953125 -1.953126 -1.953125 z m 0 1 c 0.539063 0 0.953126 0.417969 0.953126 0.953125 v 10.078125 c 0 0.535157 -0.414063 0.953125 -0.953126 0.953125 c -0.535156 0 -0.953124 -0.417968 -0.953124 -0.953125 v -10.078125 c 0 -0.535156 0.417968 -0.953125 0.953124 -0.953125 z m 0 0"
     fill="#ffffff"
     id="path213" />
  <path
     d="m 64.078125 51.042969 c 0 2.230469 -1.804687 4.035156 -4.035156 4.035156 c -2.226563 0 -4.035157 -1.804687 -4.035157 -4.035156 c 0 -2.226563 1.808594 -4.035157 4.035157 -4.035157 c 2.230469 0 4.035156 1.808594 4.035156 4.035157 z m 0 0"
     fill="#ffffff"
     id="path215" />
  <path
     d="m 68.027344 46.988281 c -1.074219 0 -1.953125 0.878907 -1.953125 1.953125 v 10.078125 c 0 1.074219 0.878906 1.953125 1.953125 1.953125 c 1.074218 0 1.953125 -0.878906 1.953125 -1.953125 v -10.078125 c 0 -1.074218 -0.878907 -1.953125 -1.953125 -1.953125 z m 0 1 c 0.539062 0 0.953125 0.417969 0.953125 0.953125 v 10.078125 c 0 0.535157 -0.414063 0.953125 -0.953125 0.953125 c -0.535156 0 -0.953125 -0.417968 -0.953125 -0.953125 v -10.078125 c 0 -0.535156 0.417969 -0.953125 0.953125 -0.953125 z m 0 0"
     fill="#ffffff"
     id="path217" />
  <path
     d="m 72.042969 54.042969 c 0 2.230469 -1.8125 4.039062 -4.042969 4.039062 s -4.042969 -1.808593 -4.042969 -4.039062 c 0 -2.234375 1.8125 -4.042969 4.042969 -4.042969 s 4.042969 1.808594 4.042969 4.042969 z m 0 0"
     fill="#ffffff"
     id="path219" />
  <path
     d="m 88.171875 42 h 19.65625 c 2.304687 0 4.171875 1.867188 4.171875 4.171875 v 15.65625 c 0 2.304687 -1.867188 4.171875 -4.171875 4.171875 h -19.65625 c -2.304687 0 -4.171875 -1.867188 -4.171875 -4.171875 v -15.65625 c 0 -2.304687 1.867188 -4.171875 4.171875 -4.171875 z m 0 0"
     fill="#62a0ea"
     id="path221" />
  <use
     mask="url(#l)"
     transform="matrix(1 0 0 1 -8 -16)"
     xlink:href="#p"
     id="use243" />
  <g
     clip-path="url(#w)"
     mask="url(#s)"
     id="g251">
    <g
       clip-path="url(#v)"
       mask="url(#t)"
       id="g249">
      <path
         d="m 128 80.640625 v 47.359375 h -128 v -47.359375 z m 0 0"
         fill="url(#u)"
         id="path245" />
      <path
         d="m 13.308594 80.640625 l 47.355468 47.359375 h 21.214844 l -47.359375 -47.359375 z m 42.421875 0 l 47.363281 47.359375 h 21.214844 l -47.363282 -47.359375 z m 42.429687 0 l 29.839844 29.839844 v -21.210938 l -8.628906 -8.628906 z m -98.160156 7.90625 v 21.214844 l 18.238281 18.238281 h 21.214844 z m 0 0"
         id="path247" />
    </g>
  </g>
  <path
     d="m 20.171875 76 h 19.65625 c 2.304687 0 4.171875 1.867188 4.171875 4.171875 v 19.65625 c 0 2.304687 -1.867188 4.171875 -4.171875 4.171875 h -19.65625 c -2.304687 0 -4.171875 -1.867188 -4.171875 -4.171875 v -19.65625 c 0 -2.304687 1.867188 -4.171875 4.171875 -4.171875 z m 0 0"
     fill="url(#h)"
     id="path197" />
  <path
     d="m 54.171875 76 h 19.65625 c 2.304687 0 4.171875 1.867188 4.171875 4.171875 v 19.65625 c 0 2.304687 -1.867188 4.171875 -4.171875 4.171875 h -19.65625 c -2.304687 0 -4.171875 -1.867188 -4.171875 -4.171875 v -19.65625 c 0 -2.304687 1.867188 -4.171875 4.171875 -4.171875 z m 0 0"
     fill="url(#i)"
     id="path199" />
  <path
     d="m 88.171875 76 h 19.65625 c 2.304687 0 4.171875 1.867188 4.171875 4.171875 v 19.65625 c 0 2.304687 -1.867188 4.171875 -4.171875 4.171875 h -19.65625 c -2.304687 0 -4.171875 -1.867188 -4.171875 -4.171875 v -19.65625 c 0 -2.304687 1.867188 -4.171875 4.171875 -4.171875 z m 0 0"
     fill="url(#j)"
     id="path201" />
  <path
     d="m 88.171875 76 h 19.65625 c 2.304687 0 4.171875 1.867188 4.171875 4.171875 v 15.65625 c 0 2.304687 -1.867188 4.171875 -4.171875 4.171875 h -19.65625 c -2.304687 0 -4.171875 -1.867188 -4.171875 -4.171875 v -15.65625 c 0 -2.304687 1.867188 -4.171875 4.171875 -4.171875 z m 0 0"
     fill="#62a0ea"
     id="path223" />
  <path
     d="m 54.171875 76 h 19.65625 c 2.304687 0 4.171875 1.867188 4.171875 4.171875 v 15.65625 c 0 2.304687 -1.867188 4.171875 -4.171875 4.171875 h -19.65625 c -2.304687 0 -4.171875 -1.867188 -4.171875 -4.171875 v -15.65625 c 0 -2.304687 1.867188 -4.171875 4.171875 -4.171875 z m 0 0"
     fill="#3d3846"
     id="path225" />
  <path
     d="m 20.171875 76 h 19.65625 c 2.304687 0 4.171875 1.867188 4.171875 4.171875 v 15.65625 c 0 2.304687 -1.867188 4.171875 -4.171875 4.171875 h -19.65625 c -2.304687 0 -4.171875 -1.867188 -4.171875 -4.171875 v -15.65625 c 0 -2.304687 1.867188 -4.171875 4.171875 -4.171875 z m 0 0"
     fill="#3d3846"
     id="path227" />
  <g
     fill="#ffffff"
     id="g241">
    <path
       d="m 26.273438 82.726562 l -1.546876 1.546876 c -0.464843 0.464843 -0.726562 1.09375 -0.726562 1.753906 v 6.945312 c 0 0.566406 0.460938 1.027344 1.027344 1.027344 h 1.972656 v 3 l 3 -3 h 1.972656 c 0.660156 0 1.289063 -0.261719 1.753906 -0.726562 l 2.546876 -2.546876 c 0.464843 -0.464843 0.726562 -1.09375 0.726562 -1.753906 l -0.011719 -5.972656 c 0 -0.566406 -0.460937 -1.023438 -1.027343 -1.023438 l -7.933594 0.019532 c -0.660156 0.003906 -1.289063 0.265625 -1.753906 0.730468 z m 1.726562 1.273438 h 6 c 0.550781 0 1 0.449219 1 1 v 3 c 0 0.640625 -0.253906 1.253906 -0.707031 1.707031 l -0.585938 0.585938 c -0.453125 0.453125 -1.066406 0.707031 -1.707031 0.707031 h -1 l -1 1 v -1 h -2 c -0.550781 0 -1 -0.449219 -1 -1 v -5 c 0 -0.550781 0.449219 -1 1 -1 z m 1 2 v 3 h 1 v -3 z m 3 0 v 3 h 1 v -3 z m 0 0"
       id="path229" />
    <path
       d="m 59.390625 82.109375 c -1.101563 0.097656 -1.875 0.898437 -2 2 c -0.257813 2.316406 -0.289063 5.207031 0 7.617187 c 0.132813 1.097657 0.902344 1.871094 2 2 c 3.375 0.394532 6.070313 0.335938 10 0 c 1.105469 -0.097656 1.914063 -0.898437 2 -2 c 0.167969 -2.160156 0.207031 -5.609374 0 -7.617187 c -0.113281 -1.101563 -0.894531 -1.890625 -2 -2 c -3.425781 -0.316406 -6.832031 -0.277344 -10 0 z m 3.03125 3.726563 l 4.941406 2.097656 l -4.941406 2.050781 z m 0 0"
       id="path231" />
    <path
       d="m 100.164062 48.875 c -1.5625 0.003906 -2.980468 0.914062 -3.632812 2.335938 c -0.421875 -0.21875 -0.894531 -0.332032 -1.367188 -0.335938 c -0.308593 0.007812 -0.617187 0.0625 -0.90625 0.164062 l 8.839844 8.835938 h 0.066406 c 1.65625 0 2.996094 -1.339844 3 -3 c -0.003906 -1.332031 -0.882812 -2.503906 -2.164062 -2.875 c 0.105469 -0.363281 0.160156 -0.742188 0.164062 -1.125 c -0.003906 -2.207031 -1.792968 -3.996094 -4 -4 z m -7.203124 2.988281 c -0.507813 0.546875 -0.792969 1.265625 -0.800782 2.011719 c 0.003906 0.351562 0.0625 0.699219 0.183594 1.027344 c -1.246094 0.15625 -2.179688 1.21875 -2.179688 2.472656 c 0 1.382812 1.117188 2.5 2.5 2.5 h 8.3125 z m 0 0"
       id="path233" />
    <path
       d="m 91.683594 46.339844 l -1.0625 1.058594 l 14 14 l 1.0625 -1.0625 z m 0 0"
       id="path235" />
    <path
       d="m 98.042969 81.46875 c -2.617188 0 -5.234375 0.933594 -7.191407 2.804688 l -0.5 0.480468 c -0.398437 0.382813 -0.410156 1.015625 -0.03125 1.414063 c 0.382813 0.398437 1.015626 0.410156 1.414063 0.027343 l 0.5 -0.476562 c 3.089844 -2.953125 8.53125 -2.953125 11.617187 0 l 0.5 0.476562 c 0.398438 0.382813 1.03125 0.371094 1.414063 -0.027343 c 0.382813 -0.398438 0.367187 -1.03125 -0.03125 -1.414063 l -0.496094 -0.480468 c -1.957031 -1.871094 -4.574219 -2.804688 -7.195312 -2.804688 z m -0.03125 4.007812 c -1.570313 0.011719 -3.125 0.628907 -4.207031 1.8125 l -0.5 0.546876 c -0.375 0.410156 -0.34375 1.046874 0.066406 1.417968 s 1.042968 0.339844 1.414062 -0.070312 l 0.496094 -0.546875 c 1.277344 -1.402344 4.160156 -1.496094 5.523438 0 l 0.5 0.546875 c 0.371093 0.410156 1.003906 0.441406 1.414062 0.070312 c 0.40625 -0.375 0.4375 -1.007812 0.0625 -1.414062 l -0.5 -0.550782 c -1.121094 -1.230468 -2.703125 -1.824218 -4.269531 -1.8125 z m 0 0"
       id="path237" />
    <path
       d="m 96 90.160156 v 3.679688 c 0 0.242187 0.121094 0.464844 0.324219 0.59375 s 0.460937 0.144531 0.679687 0.042968 l 3.511719 -1.640624 c 0.332031 -0.15625 0.542969 -0.492188 0.542969 -0.859376 c -0.003906 -0.367187 -0.21875 -0.699218 -0.550782 -0.851562 l -3.503906 -1.609375 c -0.21875 -0.101563 -0.472656 -0.082031 -0.675781 0.046875 c -0.207031 0.128906 -0.328125 0.355469 -0.328125 0.597656 z m 0 0"
       id="path239" />
  </g>
</svg>
