<?xml version="1.0" encoding="UTF-8"?>
<svg height="128px" viewBox="0 0 128 128" width="128px" xmlns="http://www.w3.org/2000/svg" xmlns:xlink="http://www.w3.org/1999/xlink">
    <linearGradient id="a" gradientTransform="matrix(0.928571 0 0 1 4.571429 -172)" gradientUnits="userSpaceOnUse" x1="7.842921" x2="119.956627" y1="284.301208" y2="284.301208">
        <stop offset="0" stop-color="#4b4b4b"/>
        <stop offset="0.0620315" stop-color="#818182"/>
        <stop offset="0.174673" stop-color="#3d3846"/>
        <stop offset="0.830765" stop-color="#3d3846"/>
        <stop offset="0.929443" stop-color="#5b5b5b"/>
        <stop offset="1" stop-color="#241f31"/>
    </linearGradient>
    <linearGradient id="b" gradientUnits="userSpaceOnUse" x1="8" x2="120" y1="112" y2="112">
        <stop offset="0" stop-color="#9a9996"/>
        <stop offset="0.0730242" stop-color="#241f31"/>
        <stop offset="0.919774" stop-color="#241f31"/>
        <stop offset="1" stop-color="#9a9996"/>
    </linearGradient>
    <linearGradient id="c" gradientUnits="userSpaceOnUse">
        <stop offset="0" stop-color="#1c71d8"/>
        <stop offset="0.0751897" stop-color="#6da7ec"/>
        <stop offset="0.178879" stop-color="#1963be"/>
        <stop offset="0.863696" stop-color="#1c71d8"/>
        <stop offset="0.940996" stop-color="#71a9ed"/>
        <stop offset="1" stop-color="#1b6acb"/>
    </linearGradient>
    <linearGradient id="d" x1="15.90918" x2="43.904785" xlink:href="#c" y1="68.699707" y2="68.699707"/>
    <linearGradient id="e" x1="50.447365" x2="77.552635" xlink:href="#c" y1="67.715347" y2="67.715347"/>
    <linearGradient id="f" x1="83.033203" x2="111.823242" xlink:href="#c" y1="68.834961" y2="68.834961"/>
    <linearGradient id="g" gradientUnits="userSpaceOnUse">
        <stop offset="0" stop-color="#443a5c"/>
        <stop offset="0.0620315" stop-color="#7d6fa3"/>
        <stop offset="0.174673" stop-color="#241f31"/>
        <stop offset="0.830765" stop-color="#241f31"/>
        <stop offset="0.929443" stop-color="#51476f"/>
        <stop offset="1" stop-color="#241f31"/>
    </linearGradient>
    <linearGradient id="h" x1="16.397379" x2="43.602623" xlink:href="#g" y1="101.613037" y2="101.613037"/>
    <linearGradient id="i" x1="50.240303" x2="77.759705" xlink:href="#g" y1="101.231934" y2="101.231934"/>
    <linearGradient id="j" x1="84.480309" x2="111.561043" xlink:href="#c" y1="101.779144" y2="101.779144"/>
    <filter id="k" height="100%" width="100%" x="0%" y="0%">
        <feColorMatrix in="SourceGraphic" type="matrix" values="0 0 0 0 1 0 0 0 0 1 0 0 0 0 1 0 0 0 1 0"/>
    </filter>
    <mask id="l">
        <g filter="url(#k)">
            <rect fill-opacity="0.17159" height="128" width="128"/>
        </g>
    </mask>
    <linearGradient id="m" gradientUnits="userSpaceOnUse" x1="37.999704" x2="113.389648" y1="61.986099" y2="113.646484">
        <stop offset="0" stop-color="#ffffff" stop-opacity="0"/>
        <stop offset="0.160638" stop-color="#ffffff" stop-opacity="0.839216"/>
        <stop offset="0.34608" stop-color="#ffffff" stop-opacity="0.109804"/>
        <stop offset="0.441021" stop-color="#ffffff"/>
        <stop offset="0.537248" stop-color="#ffffff" stop-opacity="0"/>
        <stop offset="0.811507" stop-color="#ffffff" stop-opacity="0.184314"/>
        <stop offset="0.878892" stop-color="#ffffff"/>
        <stop offset="0.953738" stop-color="#ffffff" stop-opacity="0.043137"/>
        <stop offset="1" stop-color="#ffffff" stop-opacity="0"/>
    </linearGradient>
    <clipPath id="n">
        <rect height="152" width="192"/>
    </clipPath>
    <path d="m 22 28 h 84 c 5.523438 0 10 4.476562 10 10 v 68 c 0 5.523438 -4.476562 10 -10 10 h -84 c -5.523438 0 -10 -4.476562 -10 -10 v -68 c 0 -5.523438 4.476562 -10 10 -10 z m 0 0" fill="url(#a)"/>
    <path d="m 18 32 h 92 c 5.523438 0 10 4.476562 10 10 v 62 c 0 5.523438 -4.476562 10 -10 10 h -92 c -5.523438 0 -10 -4.476562 -10 -10 v -62 c 0 -5.523438 4.476562 -10 10 -10 z m 0 0" fill="url(#b)"/>
    <path d="m 18 28 h 92 c 5.523438 0 10 4.476562 10 10 v 62 c 0 5.523438 -4.476562 10 -10 10 h -92 c -5.523438 0 -10 -4.476562 -10 -10 v -62 c 0 -5.523438 4.476562 -10 10 -10 z m 0 0" fill="#5e5c64"/>
    <path d="m 88.171875 42.5 h 19.65625 c 2.3125 0 4.171875 1.859375 4.171875 4.171875 v 19.65625 c 0 2.3125 -1.859375 4.171875 -4.171875 4.171875 h -19.65625 c -2.3125 0 -4.171875 -1.859375 -4.171875 -4.171875 v -19.65625 c 0 -2.3125 1.859375 -4.171875 4.171875 -4.171875 z m -34 0 h 19.65625 c 2.3125 0 4.171875 1.859375 4.171875 4.171875 v 19.65625 c 0 2.3125 -1.859375 4.171875 -4.171875 4.171875 h -19.65625 c -2.3125 0 -4.171875 -1.859375 -4.171875 -4.171875 v -19.65625 c 0 -2.3125 1.859375 -4.171875 4.171875 -4.171875 z m -34 0 h 19.65625 c 2.3125 0 4.171875 1.859375 4.171875 4.171875 v 19.65625 c 0 2.3125 -1.859375 4.171875 -4.171875 4.171875 h -19.65625 c -2.3125 0 -4.171875 -1.859375 -4.171875 -4.171875 v -19.65625 c 0 -2.3125 1.859375 -4.171875 4.171875 -4.171875 z m 68 34 h 19.65625 c 2.3125 0 4.171875 1.859375 4.171875 4.171875 v 19.65625 c 0 2.3125 -1.859375 4.171875 -4.171875 4.171875 h -19.65625 c -2.3125 0 -4.171875 -1.859375 -4.171875 -4.171875 v -19.65625 c 0 -2.3125 1.859375 -4.171875 4.171875 -4.171875 z m -34 0 h 19.65625 c 2.3125 0 4.171875 1.859375 4.171875 4.171875 v 19.65625 c 0 2.3125 -1.859375 4.171875 -4.171875 4.171875 h -19.65625 c -2.3125 0 -4.171875 -1.859375 -4.171875 -4.171875 v -19.65625 c 0 -2.3125 1.859375 -4.171875 4.171875 -4.171875 z m -34 0 h 19.65625 c 2.3125 0 4.171875 1.859375 4.171875 4.171875 v 19.65625 c 0 2.3125 -1.859375 4.171875 -4.171875 4.171875 h -19.65625 c -2.3125 0 -4.171875 -1.859375 -4.171875 -4.171875 v -19.65625 c 0 -2.3125 1.859375 -4.171875 4.171875 -4.171875 z m 0 0"/>
    <path d="m 20.171875 42 h 19.65625 c 2.304687 0 4.171875 1.867188 4.171875 4.171875 v 19.65625 c 0 2.304687 -1.867188 4.171875 -4.171875 4.171875 h -19.65625 c -2.304687 0 -4.171875 -1.867188 -4.171875 -4.171875 v -19.65625 c 0 -2.304687 1.867188 -4.171875 4.171875 -4.171875 z m 0 0" fill="url(#d)"/>
    <path d="m 54.171875 42 h 19.65625 c 2.304687 0 4.171875 1.867188 4.171875 4.171875 v 19.65625 c 0 2.304687 -1.867188 4.171875 -4.171875 4.171875 h -19.65625 c -2.304687 0 -4.171875 -1.867188 -4.171875 -4.171875 v -19.65625 c 0 -2.304687 1.867188 -4.171875 4.171875 -4.171875 z m 0 0" fill="url(#e)"/>
    <path d="m 88.171875 42 h 19.65625 c 2.304687 0 4.171875 1.867188 4.171875 4.171875 v 19.65625 c 0 2.304687 -1.867188 4.171875 -4.171875 4.171875 h -19.65625 c -2.304687 0 -4.171875 -1.867188 -4.171875 -4.171875 v -19.65625 c 0 -2.304687 1.867188 -4.171875 4.171875 -4.171875 z m 0 0" fill="url(#f)"/>
    <path d="m 20.171875 76 h 19.65625 c 2.304687 0 4.171875 1.867188 4.171875 4.171875 v 19.65625 c 0 2.304687 -1.867188 4.171875 -4.171875 4.171875 h -19.65625 c -2.304687 0 -4.171875 -1.867188 -4.171875 -4.171875 v -19.65625 c 0 -2.304687 1.867188 -4.171875 4.171875 -4.171875 z m 0 0" fill="url(#h)"/>
    <path d="m 54.171875 76 h 19.65625 c 2.304687 0 4.171875 1.867188 4.171875 4.171875 v 19.65625 c 0 2.304687 -1.867188 4.171875 -4.171875 4.171875 h -19.65625 c -2.304687 0 -4.171875 -1.867188 -4.171875 -4.171875 v -19.65625 c 0 -2.304687 1.867188 -4.171875 4.171875 -4.171875 z m 0 0" fill="url(#i)"/>
    <path d="m 88.171875 76 h 19.65625 c 2.304687 0 4.171875 1.867188 4.171875 4.171875 v 19.65625 c 0 2.304687 -1.867188 4.171875 -4.171875 4.171875 h -19.65625 c -2.304687 0 -4.171875 -1.867188 -4.171875 -4.171875 v -19.65625 c 0 -2.304687 1.867188 -4.171875 4.171875 -4.171875 z m 0 0" fill="url(#j)"/>
    <path d="m 56.640625 37 c 0 1.105469 -0.894531 2 -2 2 s -2 -0.894531 -2 -2 s 0.894531 -2 2 -2 s 2 0.894531 2 2 z m 0 0" fill="none" stroke="#9a9996" stroke-linecap="round" stroke-width="2"/>
    <path d="m 60 36 h 16 v 4 h -16 z m 0 0" fill="#9a9996"/>
    <path d="m 20.171875 42 h 19.65625 c 2.304687 0 4.171875 1.867188 4.171875 4.171875 v 15.65625 c 0 2.304687 -1.867188 4.171875 -4.171875 4.171875 h -19.65625 c -2.304687 0 -4.171875 -1.867188 -4.171875 -4.171875 v -15.65625 c 0 -2.304687 1.867188 -4.171875 4.171875 -4.171875 z m 0 0" fill="#62a0ea"/>
    <path d="m 35.5 47.976562 c 1.382812 0 2.503906 1.117188 2.5 2.5 v 6 c 0 1.382813 -1.113281 2.5 -2.5 2.5 h -6.375 l -3.125 3 v -3 h -1.5 c -1.5 0 -2.5 -1.316406 -2.5 -2.5 v -6 c 0 -1.386718 1.113281 -2.5 2.5 -2.5 z m 0 0" fill="#ffffff"/>
    <path d="m 54.171875 42 h 19.65625 c 2.304687 0 4.171875 1.867188 4.171875 4.171875 v 15.65625 c 0 2.304687 -1.867188 4.171875 -4.171875 4.171875 h -19.65625 c -2.304687 0 -4.171875 -1.867188 -4.171875 -4.171875 v -15.65625 c 0 -2.304687 1.867188 -4.171875 4.171875 -4.171875 z m 0 0" fill="#62a0ea"/>
    <path d="m 60.039062 46.988281 c -1.074218 0 -1.953124 0.878907 -1.953124 1.953125 v 10.078125 c 0 1.074219 0.878906 1.953125 1.953124 1.953125 c 1.074219 0 1.953126 -0.878906 1.953126 -1.953125 v -10.078125 c 0 -1.074218 -0.878907 -1.953125 -1.953126 -1.953125 z m 0 1 c 0.539063 0 0.953126 0.417969 0.953126 0.953125 v 10.078125 c 0 0.535157 -0.414063 0.953125 -0.953126 0.953125 c -0.535156 0 -0.953124 -0.417968 -0.953124 -0.953125 v -10.078125 c 0 -0.535156 0.417968 -0.953125 0.953124 -0.953125 z m 0 0" fill="#ffffff"/>
    <path d="m 64.078125 51.042969 c 0 2.230469 -1.804687 4.035156 -4.035156 4.035156 c -2.226563 0 -4.035157 -1.804687 -4.035157 -4.035156 c 0 -2.226563 1.808594 -4.035157 4.035157 -4.035157 c 2.230469 0 4.035156 1.808594 4.035156 4.035157 z m 0 0" fill="#ffffff"/>
    <path d="m 68.027344 46.988281 c -1.074219 0 -1.953125 0.878907 -1.953125 1.953125 v 10.078125 c 0 1.074219 0.878906 1.953125 1.953125 1.953125 c 1.074218 0 1.953125 -0.878906 1.953125 -1.953125 v -10.078125 c 0 -1.074218 -0.878907 -1.953125 -1.953125 -1.953125 z m 0 1 c 0.539062 0 0.953125 0.417969 0.953125 0.953125 v 10.078125 c 0 0.535157 -0.414063 0.953125 -0.953125 0.953125 c -0.535156 0 -0.953125 -0.417968 -0.953125 -0.953125 v -10.078125 c 0 -0.535156 0.417969 -0.953125 0.953125 -0.953125 z m 0 0" fill="#ffffff"/>
    <path d="m 72.042969 54.042969 c 0 2.230469 -1.8125 4.039062 -4.042969 4.039062 s -4.042969 -1.808593 -4.042969 -4.039062 c 0 -2.234375 1.8125 -4.042969 4.042969 -4.042969 s 4.042969 1.808594 4.042969 4.042969 z m 0 0" fill="#ffffff"/>
    <path d="m 88.171875 42 h 19.65625 c 2.304687 0 4.171875 1.867188 4.171875 4.171875 v 15.65625 c 0 2.304687 -1.867188 4.171875 -4.171875 4.171875 h -19.65625 c -2.304687 0 -4.171875 -1.867188 -4.171875 -4.171875 v -15.65625 c 0 -2.304687 1.867188 -4.171875 4.171875 -4.171875 z m 0 0" fill="#62a0ea"/>
    <path d="m 88.171875 76 h 19.65625 c 2.304687 0 4.171875 1.867188 4.171875 4.171875 v 15.65625 c 0 2.304687 -1.867188 4.171875 -4.171875 4.171875 h -19.65625 c -2.304687 0 -4.171875 -1.867188 -4.171875 -4.171875 v -15.65625 c 0 -2.304687 1.867188 -4.171875 4.171875 -4.171875 z m 0 0" fill="#62a0ea"/>
    <path d="m 54.171875 76 h 19.65625 c 2.304687 0 4.171875 1.867188 4.171875 4.171875 v 15.65625 c 0 2.304687 -1.867188 4.171875 -4.171875 4.171875 h -19.65625 c -2.304687 0 -4.171875 -1.867188 -4.171875 -4.171875 v -15.65625 c 0 -2.304687 1.867188 -4.171875 4.171875 -4.171875 z m 0 0" fill="#3d3846"/>
    <path d="m 20.171875 76 h 19.65625 c 2.304687 0 4.171875 1.867188 4.171875 4.171875 v 15.65625 c 0 2.304687 -1.867188 4.171875 -4.171875 4.171875 h -19.65625 c -2.304687 0 -4.171875 -1.867188 -4.171875 -4.171875 v -15.65625 c 0 -2.304687 1.867188 -4.171875 4.171875 -4.171875 z m 0 0" fill="#3d3846"/>
    <g fill="#ffffff">
        <path d="m 26.273438 82.726562 l -1.546876 1.546876 c -0.464843 0.464843 -0.726562 1.09375 -0.726562 1.753906 v 6.945312 c 0 0.566406 0.460938 1.027344 1.027344 1.027344 h 1.972656 v 3 l 3 -3 h 1.972656 c 0.660156 0 1.289063 -0.261719 1.753906 -0.726562 l 2.546876 -2.546876 c 0.464843 -0.464843 0.726562 -1.09375 0.726562 -1.753906 l -0.011719 -5.972656 c 0 -0.566406 -0.460937 -1.023438 -1.027343 -1.023438 l -7.933594 0.019532 c -0.660156 0.003906 -1.289063 0.265625 -1.753906 0.730468 z m 1.726562 1.273438 h 6 c 0.550781 0 1 0.449219 1 1 v 3 c 0 0.640625 -0.253906 1.253906 -0.707031 1.707031 l -0.585938 0.585938 c -0.453125 0.453125 -1.066406 0.707031 -1.707031 0.707031 h -1 l -1 1 v -1 h -2 c -0.550781 0 -1 -0.449219 -1 -1 v -5 c 0 -0.550781 0.449219 -1 1 -1 z m 1 2 v 3 h 1 v -3 z m 3 0 v 3 h 1 v -3 z m 0 0"/>
        <path d="m 59.390625 82.109375 c -1.101563 0.097656 -1.875 0.898437 -2 2 c -0.257813 2.316406 -0.289063 5.207031 0 7.617187 c 0.132813 1.097657 0.902344 1.871094 2 2 c 3.375 0.394532 6.070313 0.335938 10 0 c 1.105469 -0.097656 1.914063 -0.898437 2 -2 c 0.167969 -2.160156 0.207031 -5.609374 0 -7.617187 c -0.113281 -1.101563 -0.894531 -1.890625 -2 -2 c -3.425781 -0.316406 -6.832031 -0.277344 -10 0 z m 3.03125 3.726563 l 4.941406 2.097656 l -4.941406 2.050781 z m 0 0"/>
        <path d="m 100.164062 48.875 c -1.5625 0.003906 -2.980468 0.914062 -3.632812 2.335938 c -0.421875 -0.21875 -0.894531 -0.332032 -1.367188 -0.335938 c -0.308593 0.007812 -0.617187 0.0625 -0.90625 0.164062 l 8.839844 8.835938 h 0.066406 c 1.65625 0 2.996094 -1.339844 3 -3 c -0.003906 -1.332031 -0.882812 -2.503906 -2.164062 -2.875 c 0.105469 -0.363281 0.160156 -0.742188 0.164062 -1.125 c -0.003906 -2.207031 -1.792968 -3.996094 -4 -4 z m -7.203124 2.988281 c -0.507813 0.546875 -0.792969 1.265625 -0.800782 2.011719 c 0.003906 0.351562 0.0625 0.699219 0.183594 1.027344 c -1.246094 0.15625 -2.179688 1.21875 -2.179688 2.472656 c 0 1.382812 1.117188 2.5 2.5 2.5 h 8.3125 z m 0 0"/>
        <path d="m 91.683594 46.339844 l -1.0625 1.058594 l 14 14 l 1.0625 -1.0625 z m 0 0"/>
        <path d="m 98.042969 81.46875 c -2.617188 0 -5.234375 0.933594 -7.191407 2.804688 l -0.5 0.480468 c -0.398437 0.382813 -0.410156 1.015625 -0.03125 1.414063 c 0.382813 0.398437 1.015626 0.410156 1.414063 0.027343 l 0.5 -0.476562 c 3.089844 -2.953125 8.53125 -2.953125 11.617187 0 l 0.5 0.476562 c 0.398438 0.382813 1.03125 0.371094 1.414063 -0.027343 c 0.382813 -0.398438 0.367187 -1.03125 -0.03125 -1.414063 l -0.496094 -0.480468 c -1.957031 -1.871094 -4.574219 -2.804688 -7.195312 -2.804688 z m -0.03125 4.007812 c -1.570313 0.011719 -3.125 0.628907 -4.207031 1.8125 l -0.5 0.546876 c -0.375 0.410156 -0.34375 1.046874 0.066406 1.417968 s 1.042968 0.339844 1.414062 -0.070312 l 0.496094 -0.546875 c 1.277344 -1.402344 4.160156 -1.496094 5.523438 0 l 0.5 0.546875 c 0.371093 0.410156 1.003906 0.441406 1.414062 0.070312 c 0.40625 -0.375 0.4375 -1.007812 0.0625 -1.414062 l -0.5 -0.550782 c -1.121094 -1.230468 -2.703125 -1.824218 -4.269531 -1.8125 z m 0 0"/>
        <path d="m 96 90.160156 v 3.679688 c 0 0.242187 0.121094 0.464844 0.324219 0.59375 s 0.460937 0.144531 0.679687 0.042968 l 3.511719 -1.640624 c 0.332031 -0.15625 0.542969 -0.492188 0.542969 -0.859376 c -0.003906 -0.367187 -0.21875 -0.699218 -0.550782 -0.851562 l -3.503906 -1.609375 c -0.21875 -0.101563 -0.472656 -0.082031 -0.675781 0.046875 c -0.207031 0.128906 -0.328125 0.355469 -0.328125 0.597656 z m 0 0"/>
    </g>
    <g clip-path="url(#n)" mask="url(#l)" transform="matrix(1 0 0 1 -8 -16)">
        <path d="m 28.171875 92 h 19.65625 c 2.3125 0 4.171875 1.859375 4.171875 4.171875 v 15.65625 c 0 2.3125 -1.859375 4.171875 -4.171875 4.171875 h -19.65625 c -2.3125 0 -4.171875 -1.859375 -4.171875 -4.171875 v -15.65625 c 0 -2.3125 1.859375 -4.171875 4.171875 -4.171875 z m 34 0 h 19.65625 c 2.3125 0 4.171875 1.859375 4.171875 4.171875 v 15.65625 c 0 2.3125 -1.859375 4.171875 -4.171875 4.171875 h -19.65625 c -2.3125 0 -4.171875 -1.859375 -4.171875 -4.171875 v -15.65625 c 0 -2.3125 1.859375 -4.171875 4.171875 -4.171875 z m 34 0 h 19.65625 c 2.3125 0 4.171875 1.859375 4.171875 4.171875 v 15.65625 c 0 2.3125 -1.859375 4.171875 -4.171875 4.171875 h -19.65625 c -2.3125 0 -4.171875 -1.859375 -4.171875 -4.171875 v -15.65625 c 0 -2.3125 1.859375 -4.171875 4.171875 -4.171875 z m 0 -34 h 19.65625 c 2.3125 0 4.171875 1.859375 4.171875 4.171875 v 15.65625 c 0 2.3125 -1.859375 4.171875 -4.171875 4.171875 h -19.65625 c -2.3125 0 -4.171875 -1.859375 -4.171875 -4.171875 v -15.65625 c 0 -2.3125 1.859375 -4.171875 4.171875 -4.171875 z m -34 0 h 19.65625 c 2.3125 0 4.171875 1.859375 4.171875 4.171875 v 15.65625 c 0 2.3125 -1.859375 4.171875 -4.171875 4.171875 h -19.65625 c -2.3125 0 -4.171875 -1.859375 -4.171875 -4.171875 v -15.65625 c 0 -2.3125 1.859375 -4.171875 4.171875 -4.171875 z m -34 0 h 19.65625 c 2.3125 0 4.171875 1.859375 4.171875 4.171875 v 15.65625 c 0 2.3125 -1.859375 4.171875 -4.171875 4.171875 h -19.65625 c -2.3125 0 -4.171875 -1.859375 -4.171875 -4.171875 v -15.65625 c 0 -2.3125 1.859375 -4.171875 4.171875 -4.171875 z m 0 0" fill="url(#m)"/>
    </g>
</svg>
