<?xml version="1.0" encoding="UTF-8" standalone="no"?>
<svg
   height="128px"
   viewBox="0 0 128 128"
   width="128px"
   version="1.1"
   id="svg28663"
   xmlns:xlink="http://www.w3.org/1999/xlink"
   xmlns="http://www.w3.org/2000/svg"
   xmlns:svg="http://www.w3.org/2000/svg">
  <defs
     id="defs28599">
    <linearGradient
       id="a"
       gradientTransform="matrix(0.857143 0 0 1 9.142857 -172)"
       gradientUnits="userSpaceOnUse"
       x1="7.842921"
       x2="119.956627"
       y1="284.301208"
       y2="284.301208">
      <stop
         offset="0"
         stop-color="#4b4b4b"
         id="stop28405" />
      <stop
         offset="0.0620315"
         stop-color="#5e5c64"
         id="stop28407" />
      <stop
         offset="0.174673"
         stop-color="#3d3846"
         id="stop28409" />
      <stop
         offset="0.830765"
         stop-color="#3d3846"
         id="stop28411" />
      <stop
         offset="0.929443"
         stop-color="#5e5c64"
         id="stop28413" />
      <stop
         offset="1"
         stop-color="#241f31"
         id="stop28415" />
    </linearGradient>
    <linearGradient
       id="b"
       gradientTransform="matrix(1 0 0 0.951219 0 -160.04878)"
       gradientUnits="userSpaceOnUse"
       x1="8"
       x2="120"
       y1="284"
       y2="284">
      <stop
         offset="0"
         stop-color="#9a9996"
         id="stop28418" />
      <stop
         offset="0.0730242"
         stop-color="#241f31"
         id="stop28420" />
      <stop
         offset="0.919774"
         stop-color="#241f31"
         id="stop28422" />
      <stop
         offset="1"
         stop-color="#9a9996"
         id="stop28424" />
    </linearGradient>
    <linearGradient
       id="c"
       gradientUnits="userSpaceOnUse"
       x1="16.397379"
       x2="43.602623"
       y1="61.613037"
       y2="61.613037">
      <stop
         offset="0"
         stop-color="#a51d2d"
         id="stop28427" />
      <stop
         offset="0.0620315"
         stop-color="#f66151"
         id="stop28429" />
      <stop
         offset="0.174673"
         stop-color="#c01c28"
         id="stop28431" />
      <stop
         offset="0.830765"
         stop-color="#c01c28"
         id="stop28433" />
      <stop
         offset="0.929443"
         stop-color="#f66151"
         id="stop28435" />
      <stop
         offset="1"
         stop-color="#a51d2d"
         id="stop28437" />
    </linearGradient>
    <linearGradient
       id="d"
       gradientUnits="userSpaceOnUse"
       x1="50.447365"
       x2="77.552635"
       y1="61.715347"
       y2="61.715347">
      <stop
         offset="0"
         stop-color="#229660"
         id="stop28440" />
      <stop
         offset="0.0751897"
         stop-color="#8ff0a4"
         id="stop28442" />
      <stop
         offset="0.178879"
         stop-color="#26a269"
         id="stop28444" />
      <stop
         offset="0.863696"
         stop-color="#26a269"
         id="stop28446" />
      <stop
         offset="0.940996"
         stop-color="#8ff0a4"
         id="stop28448" />
      <stop
         offset="1"
         stop-color="#229660"
         id="stop28450" />
    </linearGradient>
    <linearGradient
       id="e"
       gradientUnits="userSpaceOnUse">
      <stop
         offset="0"
         stop-color="#443a5c"
         id="stop28453" />
      <stop
         offset="0.0620315"
         stop-color="#7d6fa3"
         id="stop28455" />
      <stop
         offset="0.174673"
         stop-color="#241f31"
         id="stop28457" />
      <stop
         offset="0.830765"
         stop-color="#241f31"
         id="stop28459" />
      <stop
         offset="0.929443"
         stop-color="#51476f"
         id="stop28461" />
      <stop
         offset="1"
         stop-color="#241f31"
         id="stop28463" />
    </linearGradient>
    <linearGradient
       id="f"
       x1="84.240303"
       x2="111.759705"
       xlink:href="#e"
       y1="61.231934"
       y2="61.231934" />
    <linearGradient
       id="g"
       x1="50.240303"
       x2="77.759705"
       xlink:href="#e"
       y1="95.231934"
       y2="95.231934" />
    <linearGradient
       id="h"
       gradientUnits="userSpaceOnUse"
       x1="84.480309"
       x2="111.561043"
       y1="95.779144"
       y2="95.779144">
      <stop
         offset="0"
         stop-color="#1c71d8"
         id="stop28468" />
      <stop
         offset="0.0751897"
         stop-color="#6da7ec"
         id="stop28470" />
      <stop
         offset="0.178879"
         stop-color="#1963be"
         id="stop28472" />
      <stop
         offset="0.863696"
         stop-color="#1c71d8"
         id="stop28474" />
      <stop
         offset="0.940996"
         stop-color="#71a9ed"
         id="stop28476" />
      <stop
         offset="1"
         stop-color="#1b6acb"
         id="stop28478" />
    </linearGradient>
    <linearGradient
       id="i"
       x1="16.240303"
       x2="43.759705"
       xlink:href="#e"
       y1="95.231934"
       y2="95.231934" />
    <filter
       id="j"
       height="1"
       width="1"
       x="0"
       y="0">
      <feColorMatrix
         in="SourceGraphic"
         type="matrix"
         values="0 0 0 0 1 0 0 0 0 1 0 0 0 0 1 0 0 0 1 0"
         id="feColorMatrix28482" />
    </filter>
    <mask
       id="k">
      <g
         filter="url(#j)"
         id="g28487">
        <rect
           fill-opacity="0.152"
           height="128"
           width="128"
           id="rect28485" />
      </g>
    </mask>
    <mask
       id="l">
      <g
         filter="url(#j)"
         id="g28492">
        <rect
           fill-opacity="0.152"
           height="128"
           width="128"
           id="rect28490" />
      </g>
    </mask>
    <linearGradient
       id="m"
       gradientUnits="userSpaceOnUse"
       x1="37.999704"
       x2="134"
       y1="55.986099"
       y2="110">
      <stop
         offset="0"
         stop-color="#ffffff"
         stop-opacity="0"
         id="stop28495" />
      <stop
         offset="0.160638"
         stop-color="#ffffff"
         stop-opacity="0.839216"
         id="stop28497" />
      <stop
         offset="0.34608"
         stop-color="#ffffff"
         stop-opacity="0.109804"
         id="stop28499" />
      <stop
         offset="0.518134"
         stop-color="#ffffff"
         id="stop28501" />
      <stop
         offset="0.78217"
         stop-color="#ffffff"
         stop-opacity="0"
         id="stop28503" />
      <stop
         offset="0.811507"
         stop-color="#ffffff"
         stop-opacity="0.184314"
         id="stop28505" />
      <stop
         offset="0.878892"
         stop-color="#ffffff"
         id="stop28507" />
      <stop
         offset="0.953738"
         stop-color="#ffffff"
         stop-opacity="0.043137"
         id="stop28509" />
      <stop
         offset="1"
         stop-color="#ffffff"
         stop-opacity="0"
         id="stop28511" />
    </linearGradient>
    <clipPath
       id="n">
      <rect
         height="152"
         width="192"
         id="rect28514" />
    </clipPath>
    <g
       id="o"
       clip-path="url(#n)">
      <path
         d="m 28.171875 86 h 19.65625 c 2.3125 0 4.171875 1.859375 4.171875 4.171875 v 15.65625 c 0 2.3125 -1.859375 4.171875 -4.171875 4.171875 h -19.65625 c -2.3125 0 -4.171875 -1.859375 -4.171875 -4.171875 v -15.65625 c 0 -2.3125 1.859375 -4.171875 4.171875 -4.171875 z m 34 0 h 19.65625 c 2.3125 0 4.171875 1.859375 4.171875 4.171875 v 15.65625 c 0 2.3125 -1.859375 4.171875 -4.171875 4.171875 h -19.65625 c -2.3125 0 -4.171875 -1.859375 -4.171875 -4.171875 v -15.65625 c 0 -2.3125 1.859375 -4.171875 4.171875 -4.171875 z m 34 0 h 19.65625 c 2.3125 0 4.171875 1.859375 4.171875 4.171875 v 15.65625 c 0 2.3125 -1.859375 4.171875 -4.171875 4.171875 h -19.65625 c -2.3125 0 -4.171875 -1.859375 -4.171875 -4.171875 v -15.65625 c 0 -2.3125 1.859375 -4.171875 4.171875 -4.171875 z m 0 -34 h 19.65625 c 2.3125 0 4.171875 1.859375 4.171875 4.171875 v 15.65625 c 0 2.3125 -1.859375 4.171875 -4.171875 4.171875 h -19.65625 c -2.3125 0 -4.171875 -1.859375 -4.171875 -4.171875 v -15.65625 c 0 -2.3125 1.859375 -4.171875 4.171875 -4.171875 z m -34 0 h 19.65625 c 2.3125 0 4.171875 1.859375 4.171875 4.171875 v 15.65625 c 0 2.3125 -1.859375 4.171875 -4.171875 4.171875 h -19.65625 c -2.3125 0 -4.171875 -1.859375 -4.171875 -4.171875 v -15.65625 c 0 -2.3125 1.859375 -4.171875 4.171875 -4.171875 z m -34 0 h 19.65625 c 2.3125 0 4.171875 1.859375 4.171875 4.171875 v 15.65625 c 0 2.3125 -1.859375 4.171875 -4.171875 4.171875 h -19.65625 c -2.3125 0 -4.171875 -1.859375 -4.171875 -4.171875 v -15.65625 c 0 -2.3125 1.859375 -4.171875 4.171875 -4.171875 z m 0 0"
         fill="url(#m)"
         id="path28517" />
    </g>
    <clipPath
       id="p">
      <rect
         height="128"
         width="128"
         id="rect28520" />
    </clipPath>
    <clipPath
       id="q">
      <rect
         height="128"
         width="128"
         id="rect28523" />
    </clipPath>
    <mask
       id="r">
      <g
         clip-path="url(#q)"
         filter="url(#j)"
         id="g28580">
        <g
           clip-path="url(#p)"
           id="g28578">
          <path
             d="m 26 28 h 76 c 5.523438 0 10 4.476562 10 10 v 68 c 0 5.523438 -4.476562 10 -10 10 h -76 c -5.523438 0 -10 -4.476562 -10 -10 v -68 c 0 -5.523438 4.476562 -10 10 -10 z m 0 0"
             fill="url(#a)"
             id="path28526" />
          <path
             d="m 18 34 h 92 c 5.523438 0 10 4.476562 10 10 v 58 c 0 5.523438 -4.476562 10 -10 10 h -92 c -5.523438 0 -10 -4.476562 -10 -10 v -58 c 0 -5.523438 4.476562 -10 10 -10 z m 0 0"
             fill="url(#b)"
             id="path28528" />
          <path
             d="m 18 28 h 92 c 5.523438 0 10 4.476562 10 10 v 58 c 0 5.523438 -4.476562 10 -10 10 h -92 c -5.523438 0 -10 -4.476562 -10 -10 v -58 c 0 -5.523438 4.476562 -10 10 -10 z m 0 0"
             fill="#5e5c64"
             id="path28530" />
          <path
             d="m 20.171875 36 h 19.65625 c 2.304687 0 4.171875 1.867188 4.171875 4.171875 v 19.65625 c 0 2.304687 -1.867188 4.171875 -4.171875 4.171875 h -19.65625 c -2.304687 0 -4.171875 -1.867188 -4.171875 -4.171875 v -19.65625 c 0 -2.304687 1.867188 -4.171875 4.171875 -4.171875 z m 0 0"
             fill="url(#c)"
             id="path28532" />
          <path
             d="m 20.171875 36 h 19.65625 c 2.304687 0 4.171875 1.867188 4.171875 4.171875 v 15.65625 c 0 2.304687 -1.867188 4.171875 -4.171875 4.171875 h -19.65625 c -2.304687 0 -4.171875 -1.867188 -4.171875 -4.171875 v -15.65625 c 0 -2.304687 1.867188 -4.171875 4.171875 -4.171875 z m 0 0"
             fill="#ed333b"
             id="path28534" />
          <path
             d="m 54.171875 36 h 19.65625 c 2.304687 0 4.171875 1.867188 4.171875 4.171875 v 19.65625 c 0 2.304687 -1.867188 4.171875 -4.171875 4.171875 h -19.65625 c -2.304687 0 -4.171875 -1.867188 -4.171875 -4.171875 v -19.65625 c 0 -2.304687 1.867188 -4.171875 4.171875 -4.171875 z m 0 0"
             fill="url(#d)"
             id="path28536" />
          <path
             d="m 88.171875 36 h 19.65625 c 2.304687 0 4.171875 1.867188 4.171875 4.171875 v 19.65625 c 0 2.304687 -1.867188 4.171875 -4.171875 4.171875 h -19.65625 c -2.304687 0 -4.171875 -1.867188 -4.171875 -4.171875 v -19.65625 c 0 -2.304687 1.867188 -4.171875 4.171875 -4.171875 z m 0 0"
             fill="url(#f)"
             id="path28538" />
          <path
             d="m 88.171875 36 h 19.65625 c 2.304687 0 4.171875 1.867188 4.171875 4.171875 v 15.65625 c 0 2.304687 -1.867188 4.171875 -4.171875 4.171875 h -19.65625 c -2.304687 0 -4.171875 -1.867188 -4.171875 -4.171875 v -15.65625 c 0 -2.304687 1.867188 -4.171875 4.171875 -4.171875 z m 0 0"
             fill="#3d3846"
             id="path28540" />
          <path
             d="m 54.171875 70 h 19.65625 c 2.304687 0 4.171875 1.867188 4.171875 4.171875 v 19.65625 c 0 2.304687 -1.867188 4.171875 -4.171875 4.171875 h -19.65625 c -2.304687 0 -4.171875 -1.867188 -4.171875 -4.171875 v -19.65625 c 0 -2.304687 1.867188 -4.171875 4.171875 -4.171875 z m 0 0"
             fill="url(#g)"
             id="path28542" />
          <path
             d="m 88.171875 70 h 19.65625 c 2.304687 0 4.171875 1.867188 4.171875 4.171875 v 19.65625 c 0 2.304687 -1.867188 4.171875 -4.171875 4.171875 h -19.65625 c -2.304687 0 -4.171875 -1.867188 -4.171875 -4.171875 v -19.65625 c 0 -2.304687 1.867188 -4.171875 4.171875 -4.171875 z m 0 0"
             fill="url(#h)"
             id="path28544" />
          <path
             d="m 54.171875 36 h 19.65625 c 2.304687 0 4.171875 1.867188 4.171875 4.171875 v 15.65625 c 0 2.304687 -1.867188 4.171875 -4.171875 4.171875 h -19.65625 c -2.304687 0 -4.171875 -1.867188 -4.171875 -4.171875 v -15.65625 c 0 -2.304687 1.867188 -4.171875 4.171875 -4.171875 z m 0 0"
             fill="#33d17a"
             id="path28546" />
          <path
             d="m 88.171875 70 h 19.65625 c 2.304687 0 4.171875 1.867188 4.171875 4.171875 v 15.65625 c 0 2.304687 -1.867188 4.171875 -4.171875 4.171875 h -19.65625 c -2.304687 0 -4.171875 -1.867188 -4.171875 -4.171875 v -15.65625 c 0 -2.304687 1.867188 -4.171875 4.171875 -4.171875 z m 0 0"
             fill="#62a0ea"
             id="path28548" />
          <path
             d="m 54.171875 70 h 19.65625 c 2.304687 0 4.171875 1.867188 4.171875 4.171875 v 15.65625 c 0 2.304687 -1.867188 4.171875 -4.171875 4.171875 h -19.65625 c -2.304687 0 -4.171875 -1.867188 -4.171875 -4.171875 v -15.65625 c 0 -2.304687 1.867188 -4.171875 4.171875 -4.171875 z m 0 0"
             fill="#3d3846"
             id="path28550" />
          <path
             d="m 20.171875 70 h 19.65625 c 2.304687 0 4.171875 1.867188 4.171875 4.171875 v 19.65625 c 0 2.304687 -1.867188 4.171875 -4.171875 4.171875 h -19.65625 c -2.304687 0 -4.171875 -1.867188 -4.171875 -4.171875 v -19.65625 c 0 -2.304687 1.867188 -4.171875 4.171875 -4.171875 z m 0 0"
             fill="url(#i)"
             id="path28552" />
          <path
             d="m 20.171875 70 h 19.65625 c 2.304687 0 4.171875 1.867188 4.171875 4.171875 v 15.65625 c 0 2.304687 -1.867188 4.171875 -4.171875 4.171875 h -19.65625 c -2.304687 0 -4.171875 -1.867188 -4.171875 -4.171875 v -15.65625 c 0 -2.304687 1.867188 -4.171875 4.171875 -4.171875 z m 0 0"
             fill="#3d3846"
             id="path28554" />
          <use
             mask="url(#l)"
             transform="matrix(1 0 0 1 -8 -16)"
             xlink:href="#o"
             id="use28556" />
          <path
             d="m 35 220 c 0 2.761719 -2.238281 5 -5 5 s -5 -2.238281 -5 -5 s 2.238281 -5 5 -5 s 5 2.238281 5 5 z m 0 0"
             fill="#ffffff"
             stroke="#ffffff"
             stroke-linecap="round"
             stroke-linejoin="round"
             stroke-width="4"
             transform="matrix(1 0 0 1 0 -172)"
             id="path28558" />
          <path
             d="m 60 250 h 8 v 8 h -8 z m 0 0"
             fill="#ffffff"
             stroke="#ffffff"
             stroke-linecap="round"
             stroke-linejoin="round"
             stroke-width="4"
             transform="matrix(1 0 0 1 0 -172)"
             id="path28560" />
          <path
             d="m 69 220 l -9 -5 v 10 z m 0 0"
             fill="#ffffff"
             stroke="#ffffff"
             stroke-linecap="round"
             stroke-linejoin="round"
             stroke-width="4"
             transform="matrix(1 0 0 1 0 -172)"
             id="path28562" />
          <path
             d="m 26 251 l 4 4 l 4 -4"
             fill="none"
             stroke="#ffffff"
             stroke-linecap="round"
             stroke-width="8"
             transform="matrix(1 0 0 1 0 -172)"
             id="path28564" />
          <path
             d="m 91 254 h 14.339844"
             fill="none"
             stroke="#ffffff"
             stroke-linecap="round"
             stroke-width="4"
             transform="matrix(1 0 0 1 0 -172)"
             id="path28566" />
          <path
             d="m 100.496094 259 l 5 -5 l -5 -5"
             fill="none"
             stroke="#ffffff"
             stroke-linecap="round"
             stroke-linejoin="round"
             stroke-width="4"
             transform="matrix(1 0 0 1 0 -172)"
             id="path28568" />
          <path
             d="m 97 52 c 0 1.65625 -1.34375 3 -3 3 s -3 -1.34375 -3 -3 s 1.34375 -3 3 -3 s 3 1.34375 3 3 z m 0 0"
             fill="#ffffff"
             id="path28570" />
          <path
             d="m 105 52 c 0 1.65625 -1.34375 3 -3 3 s -3 -1.34375 -3 -3 s 1.34375 -3 3 -3 s 3 1.34375 3 3 z m 0 0"
             fill="#ffffff"
             id="path28572" />
          <path
             d="m 97 44 c 0 1.65625 -1.34375 3 -3 3 s -3 -1.34375 -3 -3 s 1.34375 -3 3 -3 s 3 1.34375 3 3 z m 0 0"
             fill="#ffffff"
             id="path28574" />
          <path
             d="m 105 44 c 0 1.65625 -1.34375 3 -3 3 s -3 -1.34375 -3 -3 s 1.34375 -3 3 -3 s 3 1.34375 3 3 z m 0 0"
             fill="#ffffff"
             id="path28576" />
        </g>
      </g>
    </mask>
    <mask
       id="s">
      <g
         filter="url(#j)"
         id="g28585">
        <rect
           fill-opacity="0.8"
           height="128"
           width="128"
           id="rect28583" />
      </g>
    </mask>
    <linearGradient
       id="t"
       gradientTransform="matrix(0 0.37 -0.98462 0 295.38501 -30.360001)"
       gradientUnits="userSpaceOnUse"
       x1="300"
       x2="428"
       y1="235"
       y2="235">
      <stop
         offset="0"
         stop-color="#f9f06b"
         id="stop28588" />
      <stop
         offset="1"
         stop-color="#f5c211"
         id="stop28590" />
    </linearGradient>
    <clipPath
       id="u">
      <rect
         height="128"
         width="128"
         id="rect28593" />
    </clipPath>
    <clipPath
       id="v">
      <rect
         height="128"
         width="128"
         id="rect28596" />
    </clipPath>
  </defs>
  <path
     d="m 26 28 h 76 c 5.523438 0 10 4.476562 10 10 v 68 c 0 5.523438 -4.476562 10 -10 10 h -76 c -5.523438 0 -10 -4.476562 -10 -10 v -68 c 0 -5.523438 4.476562 -10 10 -10 z m 0 0"
     fill="url(#a)"
     id="path28601" />
  <path
     d="m 18 34 h 92 c 5.523438 0 10 4.476562 10 10 v 58 c 0 5.523438 -4.476562 10 -10 10 h -92 c -5.523438 0 -10 -4.476562 -10 -10 v -58 c 0 -5.523438 4.476562 -10 10 -10 z m 0 0"
     fill="url(#b)"
     id="path28603" />
  <path
     d="m 18 28 h 92 c 5.523438 0 10 4.476562 10 10 v 58 c 0 5.523438 -4.476562 10 -10 10 h -92 c -5.523438 0 -10 -4.476562 -10 -10 v -58 c 0 -5.523438 4.476562 -10 10 -10 z m 0 0"
     fill="#5e5c64"
     id="path28605" />
  <g
     clip-path="url(#v)"
     mask="url(#r)"
     id="g28661">
    <g
       clip-path="url(#u)"
       mask="url(#s)"
       id="g28659">
      <path
         d="m 128 80.640625 v 47.359375 h -128 v -47.359375 z m 0 0"
         fill="url(#t)"
         id="path28655" />
      <path
         d="m 13.308594 80.640625 l 47.355468 47.359375 h 21.214844 l -47.359375 -47.359375 z m 42.421875 0 l 47.363281 47.359375 h 21.214844 l -47.363282 -47.359375 z m 42.429687 0 l 29.839844 29.839844 v -21.210938 l -8.628906 -8.628906 z m -98.160156 7.90625 v 21.214844 l 18.238281 18.238281 h 21.214844 z m 0 0"
         id="path28657" />
    </g>
  </g>
  <g
     id="g29561">
    <path
       d="m 20.171875 36 h 19.65625 c 2.304687 0 4.171875 1.867188 4.171875 4.171875 v 19.65625 c 0 2.304687 -1.867188 4.171875 -4.171875 4.171875 h -19.65625 c -2.304687 0 -4.171875 -1.867188 -4.171875 -4.171875 v -19.65625 c 0 -2.304687 1.867188 -4.171875 4.171875 -4.171875 z m 0 0"
       fill="url(#c)"
       id="path28607" />
    <path
       d="m 20.171875 36 h 19.65625 c 2.304687 0 4.171875 1.867188 4.171875 4.171875 v 15.65625 c 0 2.304687 -1.867188 4.171875 -4.171875 4.171875 h -19.65625 c -2.304687 0 -4.171875 -1.867188 -4.171875 -4.171875 v -15.65625 c 0 -2.304687 1.867188 -4.171875 4.171875 -4.171875 z m 0 0"
       fill="#ed333b"
       id="path28609" />
    <path
       d="m 54.171875 36 h 19.65625 c 2.304687 0 4.171875 1.867188 4.171875 4.171875 v 19.65625 c 0 2.304687 -1.867188 4.171875 -4.171875 4.171875 h -19.65625 c -2.304687 0 -4.171875 -1.867188 -4.171875 -4.171875 v -19.65625 c 0 -2.304687 1.867188 -4.171875 4.171875 -4.171875 z m 0 0"
       fill="url(#d)"
       id="path28611" />
    <path
       d="m 88.171875 36 h 19.65625 c 2.304687 0 4.171875 1.867188 4.171875 4.171875 v 19.65625 c 0 2.304687 -1.867188 4.171875 -4.171875 4.171875 h -19.65625 c -2.304687 0 -4.171875 -1.867188 -4.171875 -4.171875 v -19.65625 c 0 -2.304687 1.867188 -4.171875 4.171875 -4.171875 z m 0 0"
       fill="url(#f)"
       id="path28613" />
    <path
       d="m 88.171875 36 h 19.65625 c 2.304687 0 4.171875 1.867188 4.171875 4.171875 v 15.65625 c 0 2.304687 -1.867188 4.171875 -4.171875 4.171875 h -19.65625 c -2.304687 0 -4.171875 -1.867188 -4.171875 -4.171875 v -15.65625 c 0 -2.304687 1.867188 -4.171875 4.171875 -4.171875 z m 0 0"
       fill="#3d3846"
       id="path28615" />
    <path
       d="m 54.171875 70 h 19.65625 c 2.304687 0 4.171875 1.867188 4.171875 4.171875 v 19.65625 c 0 2.304687 -1.867188 4.171875 -4.171875 4.171875 h -19.65625 c -2.304687 0 -4.171875 -1.867188 -4.171875 -4.171875 v -19.65625 c 0 -2.304687 1.867188 -4.171875 4.171875 -4.171875 z m 0 0"
       fill="url(#g)"
       id="path28617" />
    <path
       d="m 88.171875 70 h 19.65625 c 2.304687 0 4.171875 1.867188 4.171875 4.171875 v 19.65625 c 0 2.304687 -1.867188 4.171875 -4.171875 4.171875 h -19.65625 c -2.304687 0 -4.171875 -1.867188 -4.171875 -4.171875 v -19.65625 c 0 -2.304687 1.867188 -4.171875 4.171875 -4.171875 z m 0 0"
       fill="url(#h)"
       id="path28619" />
    <path
       d="m 54.171875 36 h 19.65625 c 2.304687 0 4.171875 1.867188 4.171875 4.171875 v 15.65625 c 0 2.304687 -1.867188 4.171875 -4.171875 4.171875 h -19.65625 c -2.304687 0 -4.171875 -1.867188 -4.171875 -4.171875 v -15.65625 c 0 -2.304687 1.867188 -4.171875 4.171875 -4.171875 z m 0 0"
       fill="#33d17a"
       id="path28621" />
    <path
       d="m 88.171875 70 h 19.65625 c 2.304687 0 4.171875 1.867188 4.171875 4.171875 v 15.65625 c 0 2.304687 -1.867188 4.171875 -4.171875 4.171875 h -19.65625 c -2.304687 0 -4.171875 -1.867188 -4.171875 -4.171875 v -15.65625 c 0 -2.304687 1.867188 -4.171875 4.171875 -4.171875 z m 0 0"
       fill="#62a0ea"
       id="path28623" />
    <path
       d="m 54.171875 70 h 19.65625 c 2.304687 0 4.171875 1.867188 4.171875 4.171875 v 15.65625 c 0 2.304687 -1.867188 4.171875 -4.171875 4.171875 h -19.65625 c -2.304687 0 -4.171875 -1.867188 -4.171875 -4.171875 v -15.65625 c 0 -2.304687 1.867188 -4.171875 4.171875 -4.171875 z m 0 0"
       fill="#3d3846"
       id="path28625" />
    <path
       d="m 20.171875 70 h 19.65625 c 2.304687 0 4.171875 1.867188 4.171875 4.171875 v 19.65625 c 0 2.304687 -1.867188 4.171875 -4.171875 4.171875 h -19.65625 c -2.304687 0 -4.171875 -1.867188 -4.171875 -4.171875 v -19.65625 c 0 -2.304687 1.867188 -4.171875 4.171875 -4.171875 z m 0 0"
       fill="url(#i)"
       id="path28627" />
    <path
       d="m 20.171875 70 h 19.65625 c 2.304687 0 4.171875 1.867188 4.171875 4.171875 v 15.65625 c 0 2.304687 -1.867188 4.171875 -4.171875 4.171875 h -19.65625 c -2.304687 0 -4.171875 -1.867188 -4.171875 -4.171875 v -15.65625 c 0 -2.304687 1.867188 -4.171875 4.171875 -4.171875 z m 0 0"
       fill="#3d3846"
       id="path28629" />
    <use
       mask="url(#k)"
       transform="matrix(1 0 0 1 -8 -16)"
       xlink:href="#o"
       id="use28631" />
    <g
       stroke="#ffffff"
       stroke-linecap="round"
       id="g28645">
      <path
         d="m 35 48 c 0 2.761719 -2.238281 5 -5 5 s -5 -2.238281 -5 -5 s 2.238281 -5 5 -5 s 5 2.238281 5 5 z m 0 0"
         fill="#ffffff"
         stroke-linejoin="round"
         stroke-width="4"
         id="path28633" />
      <path
         d="m 60 78 h 8 v 8 h -8 z m 0 0"
         fill="#ffffff"
         stroke-linejoin="round"
         stroke-width="4"
         id="path28635" />
      <path
         d="m 69 48 l -9 -5 v 10 z m 0 0"
         fill="#ffffff"
         stroke-linejoin="round"
         stroke-width="4"
         id="path28637" />
      <path
         d="m 26 79 l 4 4 l 4 -4"
         fill="none"
         stroke-width="8"
         id="path28639" />
      <path
         d="m 91 82 h 14.339844"
         fill="none"
         stroke-width="4"
         id="path28641" />
      <path
         d="m 100.496094 87 l 5 -5 l -5 -5"
         fill="none"
         stroke-linejoin="round"
         stroke-width="4"
         id="path28643" />
    </g>
    <path
       d="m 97 52 c 0 1.65625 -1.34375 3 -3 3 s -3 -1.34375 -3 -3 s 1.34375 -3 3 -3 s 3 1.34375 3 3 z m 0 0"
       fill="#ffffff"
       id="path28647" />
    <path
       d="m 105 52 c 0 1.65625 -1.34375 3 -3 3 s -3 -1.34375 -3 -3 s 1.34375 -3 3 -3 s 3 1.34375 3 3 z m 0 0"
       fill="#ffffff"
       id="path28649" />
    <path
       d="m 97 44 c 0 1.65625 -1.34375 3 -3 3 s -3 -1.34375 -3 -3 s 1.34375 -3 3 -3 s 3 1.34375 3 3 z m 0 0"
       fill="#ffffff"
       id="path28651" />
    <path
       d="m 105 44 c 0 1.65625 -1.34375 3 -3 3 s -3 -1.34375 -3 -3 s 1.34375 -3 3 -3 s 3 1.34375 3 3 z m 0 0"
       fill="#ffffff"
       id="path28653" />
  </g>
</svg>
