<?xml version="1.0" encoding="UTF-8"?>
<svg height="16px" viewBox="0 0 16 16" width="16px" xmlns="http://www.w3.org/2000/svg">
    <g fill="#222222">
        <path d="m 3.996094 0.933594 c -1.074219 0 -1.953125 0.878906 -1.953125 1.953125 v 10.078125 c 0 1.070312 0.878906 1.953125 1.953125 1.953125 c 1.074218 0 1.953125 -0.882813 1.953125 -1.953125 v -10.078125 c 0 -1.074219 -0.878907 -1.953125 -1.953125 -1.953125 z m 0 1 c 0.535156 0 0.953125 0.414062 0.953125 0.953125 v 10.078125 c 0 0.535156 -0.417969 0.953125 -0.953125 0.953125 s -0.953125 -0.417969 -0.953125 -0.953125 v -10.078125 c 0 -0.539063 0.417969 -0.953125 0.953125 -0.953125 z m 0 0"/>
        <path d="m 8.035156 4.988281 c 0 2.230469 -1.804687 4.035157 -4.035156 4.035157 s -4.0351562 -1.804688 -4.0351562 -4.035157 s 1.8046872 -4.035156 4.0351562 -4.035156 s 4.035156 1.804687 4.035156 4.035156 z m 0 0"/>
        <path d="m 11.984375 0.933594 c -1.074219 0 -1.953125 0.878906 -1.953125 1.953125 v 10.078125 c 0 1.070312 0.878906 1.953125 1.953125 1.953125 s 1.953125 -0.882813 1.953125 -1.953125 v -10.078125 c 0 -1.074219 -0.878906 -1.953125 -1.953125 -1.953125 z m 0 1 c 0.535156 0 0.953125 0.414062 0.953125 0.953125 v 10.078125 c 0 0.535156 -0.417969 0.953125 -0.953125 0.953125 s -0.953125 -0.417969 -0.953125 -0.953125 v -10.078125 c 0 -0.539063 0.417969 -0.953125 0.953125 -0.953125 z m 0 0"/>
        <path d="m 16 7.984375 c 0 2.234375 -1.8125 4.042969 -4.042969 4.042969 c -2.234375 0 -4.042969 -1.808594 -4.042969 -4.042969 c 0 -2.230469 1.808594 -4.039063 4.042969 -4.039063 c 2.230469 0 4.042969 1.808594 4.042969 4.039063 z m 0 0"/>
    </g>
</svg>
